<svg xmlns="http://www.w3.org/2000/svg" viewBox="0 0 100 100"><defs><style>.a{fill:#76c6bd;}</style></defs><title>icon012</title><path class="a" d="M35.71711,45.39708a2.33109,2.33109,0,1,0,2.33109,2.33109A2.3354,2.3354,0,0,0,35.71711,45.39708Z"/><path class="a" d="M28.74358,45.39708a2.33109,2.33109,0,1,0,2.33109,2.33109A2.3354,2.3354,0,0,0,28.74358,45.39708Z"/><path class="a" d="M50,0a50,50,0,1,0,50,50A49.99577,49.99577,0,0,0,50,0ZM26.59028,17.10786h46.128v.03951h0V38.42355h-3.872V20.9996h-38.384V38.42355h-3.872Zm8.53418,11.695v-1.936H64.10509v.03951h0v1.89648Zm28.98063,3.793v.03951h0v1.9755H35.12446v-2.015H64.10509ZM67.56223,77.499l-.05927.05927a25.397,25.397,0,0,1-35.81588-.079L34.57132,74.595a21.31873,21.31873,0,0,0,30.14619,0l.01975.01976h0L67.582,77.4595c0,.01976,0,.01976-.01976.03951ZM56.08455,66.00158c-.01976.01976-.05926.03951-.079.079a9.11063,9.11063,0,0,1-12.821-.09878L46.049,63.11734A5.04472,5.04472,0,0,0,49.64441,64.599a5.1278,5.1278,0,0,0,3.59541-1.48163l.01976.01976h0l.03951.03951,2.80522,2.80522a.01934.01934,0,0,0-.01976.01975Zm-6.44014,6.71671a13.15551,13.15551,0,0,0,9.32438-3.872l.01975.01976h0l.01976.01976L61.853,71.73054l-.01975.01976h0c-.03952.03951-.09878.079-.13829.11853a17.19471,17.19471,0,0,1-24.21968-.13829l2.86448-2.86448A13.13944,13.13944,0,0,0,49.64441,72.71829ZM80.65982,40.49783V67.48321H70.94034l-5.76847-11.616H34.17621l-5.808,11.616H18.629V40.35954H80.65982v.03951h0Z"/></svg>