<svg xmlns="http://www.w3.org/2000/svg" viewBox="0 0 100 100"><defs><style>.a{fill:#fe9b8e;}</style></defs><title>icon06</title><path class="a" d="M49.66294,31.96648a22.05555,22.05555,0,1,0,15.62624,6.4599A22.07086,22.07086,0,0,0,49.66294,31.96648ZM61.81228,42.57494,51.06555,55.29718l-.05927.05927a1.99834,1.99834,0,0,1-2.42987.53339c-.01975,0-.03951-.01976-.05926-.03952l-.11853-.05926-8.77124-6.776A1.90662,1.90662,0,0,1,41.8597,45.9728l7.76373,5.39313,10.05531-10.727a1.45735,1.45735,0,1,1,2.13354,1.936Z"/><path class="a" d="M49.9.04234a50,50,0,1,0,50,50A49.99577,49.99577,0,0,0,49.9.04234ZM17.97586,37.12255a8.57933,8.57933,0,0,1-1.126-9.4034A23.42567,23.42567,0,0,1,21.354,22.10872l-.90873-1.08653a1.44826,1.44826,0,0,1-2.05453-.17779,1.46411,1.46411,0,0,1,.15805-2.05453l2.23232-1.87672a1.45706,1.45706,0,1,1,1.89648,2.21256l.889,1.047a24.17333,24.17333,0,0,1,7.15132-4.22758,8.58408,8.58408,0,0,1,9.08732,2.62742l1.9755,2.3311L19.97112,39.41414ZM29.15721,85.799a.71068.71068,0,0,1-.98775.09878l-1.83722-1.42237a.71449.71449,0,0,1-.158-.968L30.57957,77.245,34.2145,80.07Zm43.81667-1.30383-1.83722,1.42236a.71454.71454,0,0,1-.98775-.09877l-5.09679-5.729,3.63492-2.825,4.40537,6.26235A.68914.68914,0,0,1,72.97388,84.49513ZM68.96361,73.35329A27.29527,27.29527,0,1,1,46.44287,26.9487V22.72112h6.83524v4.26709a27.29728,27.29728,0,0,1,15.6855,46.36508ZM81.33026,37.12255l-1.9755,2.3311L57.5452,20.94318l1.99526-2.3311a8.55868,8.55868,0,0,1,9.08732-2.62742,24.43257,24.43257,0,0,1,7.15132,4.22758l.889-1.047a1.466,1.466,0,0,1-.17779-2.05452,1.44634,1.44634,0,0,1,2.05452-.158l2.23232,1.87672a1.44636,1.44636,0,0,1,.158,2.05453,1.466,1.466,0,0,1-2.05452.17779l-.90873,1.08653a23.03982,23.03982,0,0,1,4.50414,5.61043A8.5271,8.5271,0,0,1,81.33026,37.12255Z"/></svg>