<svg xmlns="http://www.w3.org/2000/svg" viewBox="0 0 100 100"><defs><style>.a{fill:#76c6bd;}</style></defs><title>icon08</title><path class="a" d="M63.25563,82.9514a3.26815,3.26815,0,0,0,1.38285,1.02726A3.21787,3.21787,0,0,0,65.804,84.196a3.32547,3.32547,0,0,0,1.1853-.21731,3.60766,3.60766,0,0,0,.98775-.6124,3.25523,3.25523,0,0,0,.968-1.61992H62.663A3.27659,3.27659,0,0,0,63.25563,82.9514Z"/><path class="a" d="M23.07388,74.2987c.55315.82971,1.32359,1.91624,2.17306,2.94349a14.70511,14.70511,0,0,0,1.778,1.87673,8.06429,8.06429,0,0,0,1.00751.77045,3.8268,3.8268,0,0,0,.98775.45436,1.59688,1.59688,0,0,0,.3951.05926H70.565a1.78071,1.78071,0,0,0,.69143-.158,4.88955,4.88955,0,0,0,.90873-.51364,13.65069,13.65069,0,0,0,2.03477-1.89648c.45436-.51363.889-1.047,1.28408-1.56065.53339-.69142,1.00751-1.36309,1.38285-1.936l.11853-.2173h-54.03Z"/><path class="a" d="M31.62782,82.93165a3.26815,3.26815,0,0,0,1.38285,1.02726,3.408,3.408,0,0,0,1.1853.21731,3.27365,3.27365,0,0,0,1.69894-.47412,3.21292,3.21292,0,0,0,1.16554-1.24456,2.676,2.676,0,0,0,.27657-.73094H31.03516A3.27664,3.27664,0,0,0,31.62782,82.93165Z"/><path class="a" d="M50.3951,35.14421A15.01383,15.01383,0,1,0,65.40893,50.158,15.0325,15.0325,0,0,0,50.3951,35.14421Zm.35559,27.14342A12.39955,12.39955,0,0,1,38.34453,50.079c1.14579,0,1.63967.43462,2.62742,1.38286a7.43989,7.43989,0,0,0,11.28013,0c.98775-.94824,1.48163-1.38286,2.62741-1.38286s1.63967.43462,2.62742,1.3631a7.7082,7.7082,0,0,0,4.93876,2.56816A12.39315,12.39315,0,0,1,50.75069,62.28763Z"/><path class="a" d="M77.30146,19.755a1.80954,1.80954,0,0,0-.7902-.65192,1.87284,1.87284,0,0,0-.69143-.13828H24.16041a1.95852,1.95852,0,0,0-1.00751.31608,1.80952,1.80952,0,0,0-.65191.7902,1.87282,1.87282,0,0,0-.13829.69142v52.015H77.63729l-.01975-52.015A1.95845,1.95845,0,0,0,77.30146,19.755Zm-5.729,4.06953A1.89649,1.89649,0,1,1,69.676,25.72106,1.897,1.897,0,0,1,71.5725,23.82457ZM33.28724,22.40221H66.73252v4.72146a1.51592,1.51592,0,0,1-1.50139,1.44211H34.78862a1.51591,1.51591,0,0,1-1.50138-1.44211ZM74.73331,54.20782c0,1.50138-4.50415,2.13354-6.00553,2.1533a2.4324,2.4324,0,0,1-.3951-.03951,18.96485,18.96485,0,1,1,0-12.36666c.11853,0,.21731-.01975.33584-.01975,1.50138,0,6.0648.71118,6.0648,2.21256Z"/><path class="a" d="M50,0a50,50,0,1,0,50,50A49.99577,49.99577,0,0,0,50,0ZM81.31173,20.76254V74.14066l-.2173.37534-.158.27657-.01976.01976-.05926.079c-.03951.079-.11853.17779-.19755.31608-.17779.27657-.41486.65191-.71118,1.10628a35.49181,35.49181,0,0,1-2.41012,3.27934,21.72448,21.72448,0,0,1-2.19281,2.29158,11.7046,11.7046,0,0,1-1.48163,1.126,6.68528,6.68528,0,0,1-1.81746.84947,6.04659,6.04659,0,0,1-.81,1.38285A6.99043,6.99043,0,0,1,68.2734,87.4358a6.9801,6.9801,0,0,1-5.05728,0A7.02194,7.02194,0,0,1,61.10233,86.132a6.75558,6.75558,0,0,1-1.54089-2.015H40.33978a6.742,6.742,0,0,1-.71118,1.126,7.11285,7.11285,0,0,1-2.96326,2.19281,6.98013,6.98013,0,0,1-5.05729,0,6.99882,6.99882,0,0,1-3.793-3.57566,4.877,4.877,0,0,1-.5729-.19755,8.4184,8.4184,0,0,1-1.69893-.968,17.75685,17.75685,0,0,1-2.7262-2.56815c-.53338-.61241-1.02726-1.24457-1.48163-1.83722-.59265-.7902-1.10628-1.54089-1.50138-2.1533-.51363-.7902-.82971-1.34334-.84947-1.36309l-.35559-.61241V20.7823a5.5234,5.5234,0,0,1,3.37812-5.0968,5.66317,5.66317,0,0,1,2.1533-.43461H75.81983a5.52337,5.52337,0,0,1,5.0968,3.37811A4.83378,4.83378,0,0,1,81.31173,20.76254Z"/></svg>