<svg xmlns="http://www.w3.org/2000/svg" viewBox="0 0 100 100"><defs><style>.a{fill:#76c6bd;}</style></defs><title>icon011</title><path class="a" d="M50-.02963a50,50,0,1,1-50,50A49.99577,49.99577,0,0,1,50-.02963ZM67.60174,13.20625c-8.15883,0-14.79652,8.17858-14.79652,17.40418a19.29119,19.29119,0,0,0,5.86724,13.65073c2.825,2.70644,4.56342,4.80048,4.919,9.32438V83.41565a3.75179,3.75179,0,0,0,3.75345,3.75346h.51364A3.75179,3.75179,0,0,0,71.612,83.41565V53.58554c.35559-4.5239,2.094-6.61793,4.919-9.32437a19.29121,19.29121,0,0,0,5.86725-13.65073C82.37851,21.36507,75.76057,13.20625,67.60174,13.20625ZM41.13,16.7424V32.52667a1.82959,1.82959,0,0,1-1.81746,1.83722h-.49388a1.81706,1.81706,0,0,1-1.81746-1.83722V16.66338a3.10338,3.10338,0,0,0-3.43738-3.37811,3.11316,3.11316,0,0,0-3.43737,3.37811V32.52667a1.83374,1.83374,0,0,1-1.83722,1.83722h-.49388a1.81706,1.81706,0,0,1-1.81746-1.83722V16.7424c0-4.66219-6.63769-4.50415-6.63769.05926v15.0731c-.03951,8.37613,1.9755,10.54919,5.27459,13.15685,2.66693,2.094,4.93876,3.29909,4.93876,8.51442V83.37614A3.7518,3.7518,0,0,0,33.307,87.1296h.51363a3.7518,3.7518,0,0,0,3.75346-3.75346V53.546c0-5.21533,2.27183-6.42038,4.93876-8.51442,3.29909-2.60766,5.3141-4.78072,5.27459-13.15686V16.80166C47.76768,12.23825,41.13,12.08021,41.13,16.7424Z"/></svg>