<svg xmlns="http://www.w3.org/2000/svg" viewBox="0 0 512 512" width="512" height="512"><title></title><path d="M0,64V352a64.05929,64.05929,0,0,0,64,64H208l124.9,93.6A11.48212,11.48212,0,0,0,340,512a11.9655,11.9655,0,0,0,12-12V416h96a64.05928,64.05928,0,0,0,64-64V64A64.05928,64.05928,0,0,0,448,0H64A64.05928,64.05928,0,0,0,0,64Zm32,0A32.09407,32.09407,0,0,1,64,32H448a32.09408,32.09408,0,0,1,32,32V352a32.09407,32.09407,0,0,1-32,32H320v76l-92.8-69.6-8.5-6.4H64a32.09406,32.09406,0,0,1-32-32Zm96,184v16a8.02353,8.02353,0,0,0,8,8H280a8.02353,8.02353,0,0,0,8-8V248a8.02353,8.02353,0,0,0-8-8H136A8.02353,8.02353,0,0,0,128,248Zm0-96v16a8.02353,8.02353,0,0,0,8,8H376a8.02353,8.02353,0,0,0,8-8V152a8.02353,8.02353,0,0,0-8-8H136A8.02353,8.02353,0,0,0,128,152Z"/></svg>
