<svg xmlns="http://www.w3.org/2000/svg" viewBox="0 0 88 100"><title>icon02</title><path d="M68.2361,32.97924a1.07728,1.07728,0,0,0-.77312,1.01548q-.19091,1.99546-.40481,3.98839a1.09713,1.09713,0,0,0-.17828,1.619Q65.61778,50.98414,63.63682,62.27C62.26808,70.011,61.7446,79.02137,54.81407,83.6703c-.16918-.08219-.335-.15912-.49364-.22684a1.14783,1.14783,0,0,0-1.54392,1.377c-6.201,3.04193-14.36259,3.92393-21.098,3.18878-4.15983-.454-8.09924-1.94578-10.89264-5.17457-2.58347-2.98617-3.878-6.88151-4.82448-10.64943-2.16034-8.6004-3.6903-17.40468-5.37829-26.1276a18.00413,18.00413,0,0,0,3.40182,1.30166,68.87135,68.87135,0,0,0,16.29557,2.58436c9.7679.38195,21.01147-.90486,29.68306-5.73865,3.33874-1.86111,8.44623-5.74766,6.90589-10.23326-.98574-2.87054-4.14729-5.57806-7.271-6.8427a.90884.90884,0,0,0-.74011-.79239,67.2387,67.2387,0,0,0-31.322.05887C20.59086,28.09163,7.98607,31.61824,7.20943,40.47812a5.119,5.119,0,0,0,.80313,3.40708c1.95351,9.86141,3.53914,19.916,6.11481,29.62488,1.88844,7.1185,5.61818,13.37754,12.79145,15.67051-2.51655,2.481-6.896,6.86108-3.074,8.71108,2.32368,1.1248,5.794.93777,8.2939.90149a54.70581,54.70581,0,0,0,9.45087-1.0436c3.22432-.61605,6.39994-1.459,9.5468-2.38818,2.342-.6915,5.842-1.14359,7.69975-2.87585,2.94373-2.7448.61537-5.75277-2.02223-7.62567a16.1246,16.1246,0,0,0,3.40187-3.22727c2.73817-3.544,3.4094-8.06107,4.248-12.3402q.73247-3.73777,1.37732-7.49109c8.35741,1.71252,15.53578-5.00566,16.53125-13.21594C83.3776,40.29435,77.48883,31.004,68.2361,32.97924ZM54.14752,44.47029a65.4431,65.4431,0,0,1-23.86706,3.36717,66.90943,66.90943,0,0,1-12.49527-1.674c-.40069-.09293-.81329-.18487-1.22957-.279a.96173.96173,0,0,0-.43256-1.24737c-2.16186-1.23053,4.00824-5.20959,4.44653-5.47807a31.38334,31.38334,0,0,1,5.06595-2.489A52.94414,52.94414,0,0,1,37.52623,33.726a44.88669,44.88669,0,0,1,13.2527.00373c3.424.55582,9.94386,1.79308,9.67554,6.41426a.891.891,0,0,0,.60626.94867A26.85858,26.85858,0,0,1,54.14752,44.47029ZM9.45965,41.3378a5.8625,5.8625,0,0,1,.93529-3.63455c3.73428-6.2097,13.43909-8.4397,19.99652-9.79175a64.62278,64.62278,0,0,1,25.67988-.0228,1.07842,1.07842,0,0,0,.88564.638,9.35975,9.35975,0,0,1,5.38866,3.05109c1.96579,1.9116,3.45589,3.8935,1.65234,6.56906a10.656,10.656,0,0,1-1.43014,1.69172c.05008-4.64966-5.02682-6.78631-8.91558-7.68717a47.03185,47.03185,0,0,0-18.42511-.19424c-5.58212.94277-11.26027,2.54835-16.076,5.609-1.9729,1.2538-6.93412,4.86323-5.50119,7.56064a13.576,13.576,0,0,1-1.89138-.74295A4.24686,4.24686,0,0,1,9.98856,42.849,1.08347,1.08347,0,0,0,9.45965,41.3378ZM57.86494,90.16759c-.636,1.78381-4.28566,2.25733-5.87244,2.73885a106.97547,106.97547,0,0,1-10.96288,2.81215,48.2,48.2,0,0,1-11.79171.90938,13.3709,13.3709,0,0,1-3.58247-.38763c-1.18977-.66576-.70746-1.08936-.07292-2.19736a27.05478,27.05478,0,0,1,3.72131-4.26018A42.91776,42.91776,0,0,0,51.6563,87.58834,24.86288,24.86288,0,0,0,54.96808,86.038C56.69008,86.90847,58.54908,88.24877,57.86494,90.16759ZM68.90512,40.27708c3.23806,1.04055,5.65878,4.46833,4.77893,7.93828a7.03182,7.03182,0,0,1-6.47776,5.11033Q68.17492,46.81782,68.90512,40.27708ZM80.2112,48.85974c-1.05893,6.82454-7.02889,12.32519-14.01434,10.86368.23784-1.42135.45551-2.84585.67618-4.26987a9.12529,9.12529,0,0,0,9.0536-7.83661,9.05786,9.05786,0,0,0-6.79969-9.42511c.11763-1.10053.24326-2.2001.3512-3.30162C77.08866,33.79464,81.24079,42.22391,80.2112,48.85974Z"/><path d="M21.96134,15.69061a14.69845,14.69845,0,0,1-1.02075,1.92108q-.30921.34776-.61832.69562-1.0081-.27162-2.01622-.54329c-.60647-.7024-.17592-2.91408.0299-3.65145a7.82439,7.82439,0,0,1,1.38328-2.7378c.33462-.42333,2.28671-2.7786,2.77191-1.26933a.05907.05907,0,0,0,.1091-.01137,1.374,1.374,0,0,0-.28648-1.2718.57152.57152,0,0,0-.648-.1308c-3.6336,1.21152-6.42963,5.63635-5.26635,9.4773a3.09371,3.09371,0,0,0,3.57247,2.14376c2.19325-.306,3.45647-2.22563,4.14334-4.16467C24.53717,14.95672,22.43607,14.76959,21.96134,15.69061Z"/><path d="M71.17161,20.10123a5.71947,5.71947,0,0,1-6.32517-1.38075,7.96474,7.96474,0,0,0,.92956-1.21857c1.16686-1.87938,2.87912-5.33522.428-6.9637a3.9218,3.9218,0,0,0-5.56405,1.79144,6.91257,6.91257,0,0,0,.5526,6.18058,2.37165,2.37165,0,0,1-2.86127-.19366c-1.53834-1.161-1.84273-3.30978-1.7031-5.08322a7.37431,7.37431,0,0,1,.10436-.74336c2.98338-.62411,5.08775-1.95294,3.7753-4.72749a2.97853,2.97853,0,0,0-4.74313-.635,7.34467,7.34467,0,0,0-1.766,3.46227c-.69272-.01675-1.36474-.05729-1.87585-.03686q-2.92775.11721-5.85544.235c.055-.19071.10831-.38179.16586-.57177,2.52828-.79839,4.58147-2.2449,5.08885-4.99323.32909-1.78276-.6329-3.70036-2.61032-3.72206-2.47621-.02717-3.288,3.1029-4.01087,4.94226q-.4434,1.12826-.81972,2.27977a26.90452,26.90452,0,0,1-4.51318.52406,8.606,8.606,0,0,0,2.287-7.1413,1.1236,1.1236,0,0,0-1.43077-.83926c-3.1277.70867-4.00586,3.95248-4.77666,6.69822-.32761,1.167-.58925,2.34379-.80229,3.52709a34.69988,34.69988,0,0,1-3.47964,2.0951c.50937-2.84848.61084-6.82823-2.84858-5.94248-1.28107.328-1.03513,1.46963-.1796,1.8361a6.20027,6.20027,0,0,0-.85247.374c-2.63623,1.40912-4.26466,5.23707-2.70294,7.98392a2.97523,2.97523,0,0,0,3.41061,1.55082c1.63448-.48478,2.26343-2.22884,2.69035-3.70684.05792-.20061.124-.44582.1923-.72394a.71471.71471,0,0,0,.29244-.072c1.034-.51174,2.13143-1.08135,3.21331-1.71963A45.34611,45.34611,0,0,0,34.196,20.5173c.02438.91455,1.47321,1.2202,2.06757.65944a8.99454,8.99454,0,0,0,2.36264-9.87252c1.47447-.08978,3.15644-.1854,4.813-.42855a44.86723,44.86723,0,0,0-1.0883,5.21722c-.285,1.937-1.48974,6.0303,1.10384,6.85408,2.15818.68544,3.8579-1.4958,4.55436-3.20837a9.85007,9.85007,0,0,0,.18439-6.73934c1.46757.02753,3.47011.0467,5.45206-.10136a10.89581,10.89581,0,0,0,.28307,3.43272,5.97516,5.97516,0,0,0,8.64563,4.06063c.15733.16391.318.32224.4842.46877a9.29526,9.29526,0,0,0,9.689,1.31709C74.63767,21.42405,72.69168,19.48928,71.17161,20.10123Zm-44.33546-3.059c-.79686-.94319-.48694-2.78324-.08493-3.80473A5.22977,5.22977,0,0,1,27.84405,11.527a3.59118,3.59118,0,0,1,.68582-.63.97148.97148,0,0,1,.603-.42165C28.93889,12.82307,28.32389,18.80325,26.83615,17.04219ZM39.76145,3.71183A7.838,7.838,0,0,1,37.6089,9.09112C37.99769,7.19726,38.61649,4.90934,39.76145,3.71183Zm8.31712,2.00959c.19234-.44524.54091-1.87827.78944-1.43366.319.57071-.4394,1.77933-.809,2.24748a4.77468,4.77468,0,0,1-.54934.578C47.69214,6.64629,47.8798,6.1814,48.07857,5.72142ZM45.33113,19.17015q-.28314.56906-.56629,1.13811-.16768.81564-.07751-.072c-.30966-1.39717.29981-3.51418.53781-4.9153.08941-.52591.19229-1.049.30208-1.57056a7.96646,7.96646,0,0,1,.37663,2.65423A8.4325,8.4325,0,0,1,45.33113,19.17015Zm12.074-9.34725c.25332-1.11273,1.03486-.76216,0,0Zm6.704,4.52561a10.11226,10.11226,0,0,1-.73126,1.60832,5.99258,5.99258,0,0,1-.1389-1.402C63.26793,13.20118,64.81948,12.25652,64.10908,14.34851Z"/><path d="M19.83186,83.5968c.03659.01843.08461.04044.13443.06181a.29261.29261,0,0,1,.09519.00774l-.00173-.00194-.04713-.00948a.17125.17125,0,0,0,.0347.00242l-.00269-.00142a.71817.71817,0,0,1-.07366-.0437l-.05571-.01748c-.05528-.0178-.08887-.02707-.11136-.03207A.07682.07682,0,0,0,19.83186,83.5968Z"/></svg>