<svg xmlns="http://www.w3.org/2000/svg" viewBox="0 0 100 100"><defs><style>.a{fill:#fe9b8e;}</style></defs><title>icon07</title><path class="a" d="M47.5166,29.697H44.71V47.41187h3.17139q11.70044,0,11.70068-9.00293Q59.582,29.69751,47.5166,29.697Z"/><path class="a" d="M50,0a50,50,0,1,0,50,50A50,50,0,0,0,50,0ZM62.60742,50.76538q-5.17675,4.5205-13.96094,4.52H44.71V78.13989H36.2168V21.86011h9.623A43.39561,43.39561,0,0,1,56.52,22.84448a14.32186,14.32186,0,0,1,6.415,3.71778A16.01733,16.01733,0,0,1,67.7832,38.51831Q67.7832,46.2461,62.60742,50.76538Z"/></svg>