<svg xmlns="http://www.w3.org/2000/svg" viewBox="0 0 100 100"><defs><style>.a{fill:#76c6bd;}</style></defs><title>icon10</title><path class="a" d="M49.98955.12455a50,50,0,1,0,50,50A49.99577,49.99577,0,0,0,49.98955.12455ZM28.73313,11.78H68.71732v3.85224H28.73313ZM73.04368,27.189V80.5078c0,2.094-.59265,4.7412-2.094,5.45239-3.04227,1.44211-1.91624,3.85223-5.1363,3.85223H31.63712c-3.22007,0-2.11379-2.41012-5.13631-3.85223-1.50138-.71119-2.094-3.37812-2.094-5.45239V27.189c0-1.60016-.158-2.094.47412-3.22007s4.82023-6.57843,4.82023-6.57843h24.358c-2.52864,6.59818-2.13354,17.503.33584,35.322,1.936,13.96681-4.58317,25.78032-9.46267,31.78585H59.21515c3.61517-6.49941,3.062-19.83406,1.936-25.52351-5.729-29.0399-.27657-38.95693,1.87672-41.58435h4.74121s4.16832,5.45239,4.82023,6.57843C73.20172,25.11467,73.04368,25.58879,73.04368,27.189Z"/></svg>