<svg xmlns="http://www.w3.org/2000/svg" viewBox="0 0 94 100"><defs><style>.a{fill:#f82300;}.a,.b{fill-rule:evenodd;}.c{fill:none;}.d{fill:#fff;}</style></defs><title>icon03</title><path class="a" d="M87.537,65.30794l-.01218-.00133-.00093.01381Z"/><path class="b" d="M90.61158,52.816a6.75167,6.75167,0,0,1-.17528-1.18929,7.979,7.979,0,0,0-.01156-1.6118c-.03059-.44722-.11379-.88848-.10271-1.34077a11.065,11.065,0,0,0-.20947-2.24977c-.23242-1.26139-.36432-2.53964-.664-3.79017-.18935-.78953-.227-1.61042-.44565-2.398-.06243-.22172-.1216-.44627-.17123-.67322a22.53378,22.53378,0,0,0-.75924-2.695c-.11238-.32117-.29861-.62282-.37884-.93422-.1717-.66629-.52416-1.24782-.75049-1.8835-.115-.322-.34965-.584-.44925-.90745a23.36929,23.36929,0,0,0-1.19427-2.60614c-.28283-.62937-.62125-1.2354-.92906-1.85251a6.67441,6.67441,0,0,0-.90346-1.43,1.56079,1.56079,0,0,0-1.2461-.6086c-.51182.03809-.80388-.07461-.97-.54266-.00983-.02717-.04275-.04472-.0604-.07017-.51682-.7718-1.07845-1.51043-1.62977-2.25726a22.05708,22.05708,0,0,0-2.27723-2.55939c-.67277-.66456-1.39345-1.2802-2.06248-1.9482-.89455-.89317-1.76338-1.81379-2.70539-2.65655-.23274-.2076-.33045-.54647-.6328-.65933a1.6239,1.6239,0,0,1-.70805-.57287c-.19636-.25154-.2933-.6029-.70647-.60438-.04074,0-.07134-.103-.12207-.13285-.435-.26036-.53775-.85928-1.0594-1.03286-.10444-.03482-.06541-.16624-.11177-.24131-.1628-.26669-.32919-.5365-.71553-.44261l.00312.00671-.01311-.0043c-.11582.02669-.21837.17421-.39071.028a.39359.39359,0,0,1,.39071-.028l.00531-.00171.00468-.0007a.72615.72615,0,0,0-.66651-.46812l-.00126.00983-.01092-.00765a.50988.50988,0,0,1-.09787.08569c-.06947.03544-.11411-.00991-.13845-.06922a.09327.09327,0,0,1,.01373-.0796.08951.08951,0,0,1,.12237-.00882c.03419.022.06713.047.10022.07195l.00344-.00351.00874.00133c.0156-.11333.1514-.26654-.10975-.28831a2.0962,2.0962,0,0,1-.31483-.082,2.466,2.466,0,0,1-.88272-.34683c-.1812-.13277-.27783-.42949-.58378-.20348a.054.054,0,0,1-.01827.008c-.0721-.05853-.12892-.09708-.12892-.09708-.08758-.10778-.17795-.21385-.26318-.32334-.12675-.1636.192-.23283.11021-.38774-.27208-.049-.32078.15749-.43113.30189l-.35824-.19568a.10607.10607,0,0,0-.09475-.05174l-.85882-.16233a.61864.61864,0,0,0-.18731-.25974c-.12768-.08374-.16187-.05706-.17233-.00157a2.12809,2.12809,0,0,0-.2204-.13783c-.104-.05222-.12832-.06345-.1333-.065-.08836-.162-.18248-.327-.4302-.19387,0,0-.13611-.02927-.30516-.07478a.56416.56416,0,0,0-.175-.11949c-.01529.01889-.02888.03786-.042.05674-.08788-.02732-.17373-.05705-.24617-.088a2.47675,2.47675,0,0,1-.60532-.44416,1.58622,1.58622,0,0,1-.565-.20183,2.51475,2.51475,0,0,0-.72662-.24217s-.68665-.20175-.84836-.28261c-.16094-.08047-.6047-.16147-.76643-.24194a2.24042,2.24042,0,0,0-.68633-.1212,5.56394,5.56394,0,0,1-.80716-.12107c-.12145-.04026-.84822-.202-.84822-.202L54.964,7.56508l-.56538-.04074s-.64575-.16131-.80746-.20167c-.16141-.04035-.76673-.12121-.76673-.12121s-.52509-.12089-.68634-.16139a3.97518,3.97518,0,0,1-.44394-.16157,2.55661,2.55661,0,0,0-.52494-.1208c-.16171,0-.24241-.12121-.36338-.202a.77224.77224,0,0,0-.404-.04042,1.55613,1.55613,0,0,1-.36308-.04044.89471.89471,0,0,0-.26973-.015c-.05182-.07063-.15047-.07626-.36167-.08476-.39039-.01576-.76938.10247-1.15447.09787a9.23667,9.23667,0,0,0-2.91.48818,2.1891,2.1891,0,0,1-.59128.12c-1.08376.03176-2.16706.08406-3.24425.20659a12.93427,12.93427,0,0,0-1.83519.30087c-.56787.15008-1.14572.25965-1.71016.43011-.23976.07228-.51276.21978-.77749-.02973-.10927-.103-.30158-.03443-.44892.01545a9.37753,9.37753,0,0,0-1.41.61438A6.9619,6.9619,0,0,1,33.942,9.0976c-.3036.0878-.76377-.14126-.89816.36947-.00235.00867-.052.007-.079.00657-.24177-.00313-.465.16857-.7199.06579a.274.274,0,0,0-.26207.05666,8.32637,8.32637,0,0,1-2.42461.99517c-.67415.23547-1.334.51354-2.01749.72779-.42676.13361-.84229.31413-1.2642.47054-.43472.1614-.89192.24975-1.31494.45282-.93468.44909-1.75791,1.08392-2.66467,1.58131-.39069.21415-.72255.53508-1.11325.74979a12.9283,12.9283,0,0,0-1.57248,1.12161,16.64385,16.64385,0,0,0-1.43355,1.25015c-.62657.60026-1.36083,1.07321-1.94244,1.729-.52416.59166-1.04082,1.18973-1.5155,1.8188a2.24851,2.24851,0,0,1-.57131.525c-.189.12362-.46266.11574-.31078.45789.025.05729-.071.08921-.12394.11739-.57395.30314-.79638.92477-1.23031,1.35528a.24033.24033,0,0,0-.00282.36018l.01811.00179-.00687.012a.57882.57882,0,0,0,.43846.18708c-.0707.24765-.21118.25218-.394.17155-.22633-.10022-.11473-.22985-.04448-.35863l-.00422-.00344-.007-.01037a.61527.61527,0,0,0-.52026.21892c-.48967.48468-.8646,1.0644-1.3076,1.588a2.35571,2.35571,0,0,0-.44438.63178,1.53578,1.53578,0,0,1-.39258.5635,8.26637,8.26637,0,0,0-.95779,1.39141,7.76006,7.76006,0,0,1-.72459,1.15993,1.7111,1.7111,0,0,0-.38774.6769,8.9483,8.9483,0,0,1-.72786,1.65544,1.63712,1.63712,0,0,0-.28846.52308,18.87454,18.87454,0,0,1-.87053,2.44129c-.2154.6289-.47062,1.24368-.635,1.88935-.076.29939-.15922.594-.25865.88826-.135.397-.33311.76493-.46109,1.16476q-.41373,1.28486-.755,2.589a28.57662,28.57662,0,0,0-.57129,2.91942c-.194,1.27644-.22041,2.56734-.298,3.853A28.02117,28.02117,0,0,0,2.837,50.62144c.04276.80451.06259,1.60956.13158,2.41446.07071.83345.08866,1.673.16233,2.50919.07275.83471.24382,1.65958.25365,2.50123.00625.58856-.01013,1.17867,0,1.76511.01329.75845.03592,1.5191.06089,2.27763a.59225.59225,0,0,0,.13877.33365c.14579.20824.40943.31524.45391.618.03777.25757.31078.45494.21666.76143-.02122.067.04278.09537.103.12613.58.29439.63562.39584.5279,1.00227-.0284.15936-.05665.26231.13238.3751a1.01435,1.01435,0,0,1,.51948.92858.395.395,0,0,0,.24788.44222.47133.47133,0,0,1,.169.64918.4.4,0,0,0,.05572.5468c.23743.15049.33842.27676.23633.552-.04137.11144.08195.16092.1731.16982.11771.0114.09632-.08757.099-.16249.00266-.06353.01311-.12488.12565-.13628.09506.18826.37.349.0562.60191-.03746.03059-.00235.08241.03715.11675a1.37916,1.37916,0,0,1,.42239,1.033.73355.73355,0,0,0,.21962.48187,8.97665,8.97665,0,0,0,1.10014.9545c.23321.18639.53446.35559.35886.75441-.03293.07492.02856.21087.15548.14657.2638-.13238.4088.06274.49168.21789.26225.48859.78251.80826.89785,1.39174a.34369.34369,0,0,0,.14486.17233c.13439.08975.19823.23694.30189.34325a8.96336,8.96336,0,0,1,.63841.96028,17.94754,17.94754,0,0,0,1.3193,1.72732.42967.42967,0,0,1,.08366.1639c.15486.463.61658.79295.58207,1.33975a.11328.11328,0,0,0,.04778.07712c.42316.30983.561.8916,1.07142,1.1184.12627.05635.13158.19573.18591.30516a1.94259,1.94259,0,0,0,.99291.92828,1.91623,1.91623,0,0,1,.56177.35184c.17264.155.32625.32935.49326.49122.31608.30611.33576.4124.12425.80545-.0515.09553-.138.179-.0515.29407.08709.116.194.114.33043.08649a1.68669,1.68669,0,0,1,1.5202.65871,4.065,4.065,0,0,0,.64889.787c.47716.47982,1.03723.87225,1.5194,1.35084.12737.12565.34138.15483.43409.33638a1.69841,1.69841,0,0,0,.67463.61984,1.6808,1.6808,0,0,1,.81544.84868c.06774.19964.189.47233.42521.51074a.78965.78965,0,0,1,.45047.29063c.19839.19606.37463.41663.58348.60081a5.51933,5.51933,0,0,0,1.26685.61236c.12207.06322.28752.06259.38883.19184a.87392.87392,0,0,0,.33482.24724c.45969.21057.91955.42255,1.38486.62219q.89.38071,1.78991.73972a.71841.71841,0,0,0,.47952.03731.80233.80233,0,0,1,.71429.017.91486.91486,0,0,0,.65872.16155.68526.68526,0,0,1,.62358.22947.87251.87251,0,0,0,.73739.30125c.26645-.01.59861-.07148.81887.207a.20226.20226,0,0,0,.21946.04681,1.08038,1.08038,0,0,1,.92939.16032.48838.48838,0,0,0,.2115.08523,2.54858,2.54858,0,0,1,1.1696.30672c.25474.12721.54352.33435.8785.1653.08086-.04042.15079.015.20183.0768a.6404.6404,0,0,0,.79061.20682.66665.66665,0,0,1,.27723.00109,12.84352,12.84352,0,0,1,1.83954.40975c.20854.0526.38619.10349.56444-.04792a.27513.27513,0,0,1,.34668-.01046.60287.60287,0,0,0,.359.06712,8.30652,8.30652,0,0,1,1.44.05932c.782.10052,1.5675.04558,2.34562.1436.10864.0139.29081.05666.36776-.12051.02092-.04884.08273-.07944.1091-.03433.12472.21447.27831.13736.43644.05745.26115.37117.51433.06118.76688-.01313.08961-.02637.14346-.0643.23727.03092.24756.25115.37588.2488.6854.05166.06806-.044.15454-.1024.21214-.054.21868.183.51932.04418.7433.21119.10085.07461.16672.00687.17-.11737.00141-.05776.00718-.21931.06416-.13425.10614.15813.28471.02185.36433.15688.17513.29532.472.27518.74768.25568a7.27076,7.27076,0,0,0,1.058-.13909c.54991-.11924,1.09093-.26816,1.65162-.344a4.5818,4.5818,0,0,0,1.17053-.26489c.32889-.13939.64264-.319.984-.44253.194-.06945.37367-.17857.57036-.04526.24834.17.32124-.28658.566-.14392a.26472.26472,0,0,0,.36745-.08943.27767.27767,0,0,1,.19824-.11052,2.29071,2.29071,0,0,0,1.25841-.49592.82457.82457,0,0,1,.30579-.09927c.14768-.03731.52229-.26426.52917-.36183.01747-.21821.11644-.20776.2805-.15078.54756.19106.73769.08133.81043-.44862.12925.04.142.29363.3153.20917.14283-.06742.18732.022.27566.07493.37869.22868.51121.182.7032-.23133.13877-.29643.17561-.32312.423-.11472a.46555.46555,0,0,0,.588.06305.94908.94908,0,0,1,.52354-.16982c.39632.07664.65419-.2112.91377-.36292.4725-.27441.962-.5087,1.454-.73411.20418-.093.4505-.07134.52744-.35683.02467-.09256.12675-.03013.20042-.02233.2788.03.28238.02577.28238-.28361,0-.06415-.01795-.12706.05666-.15219.10022-.03449.12894.03434.15626.1152.04792.14406.18513.2282.2769.114.11005-.13612.30579-.18123.36308-.34653a.58044.58044,0,0,1,.54163-.377,2.4585,2.4585,0,0,1-.099-.24319c-.103-.35044-.07821-.37822.29923-.354.15656.00951.34308.01327.42035-.12566.08914-.16155-.17263-.18887-.19808-.32624a.28236.28236,0,0,1,0-.04589c.24616.00422.24475.00344.425-.33809.01936-.03559.08147-.04558.11206-.07805.09475-.09927.18217-.20416.27676-.303.015-.01546.05651-.005.08742-.00672.11269.104-.07867.23914.06119.36744.13938-.00983.30516-.02076.45548-.03059.03292-.22867.06212-.43.1002-.70288a.42505.42505,0,0,0,.59441.16951c.25037-.09288.4088-.13455.38352-.43363-.02014-.23976.148-.29688.33341-.24209.33015.096.56834-.10209.82434-.22993.17544-.08772.02215-.3.09662-.42193.07851-.12924.36728.02591.37821-.24382.00624-.1606.13673-.21071.23773-.30609a2.07909,2.07909,0,0,1,.7597-.3957,4.16393,4.16393,0,0,1,1.21721-.46577c.01483-.10943-.02028-.15236-.083-.18185-.10567-.05043-.13393-.12456-.05775-.22166a.14132.14132,0,0,1,.20494-.03339c.08788.05525.15532.16.31078.11331.06743-.29267.16874-.58347.58442-.49637.02372.00358.05572-.02263.08038-.04012.21494-.15938.30189-.43393.4828-.59893.18014-.16437.49356-.16218.68213-.3626a.34875.34875,0,0,0,.04012-.08368c.08677-.16888.18215-.13111.28408-.01373.04044.04684.08945.08632.23352.04714-.16546-.34418.09739-.603.20167-.90877.05291-.15531.1191-.23445.3072-.14767a.31959.31959,0,0,0,.44814-.19886,1.77388,1.77388,0,0,0,.09771-.31031c.02529-.12034.09319-.18123.18716-.09319.115.108.14673.07305.23258-.03622.06945-.089.16374-.13282.08147-.26348a.47256.47256,0,0,1-.1194-.249c.05572-.08975.15015-.00547.20525-.0398.1355-.08446.36245-.07337.39133-.26147.0153-.10239-.03308-.19.11645-.1397.19606.06619.24538-.05447.28814-.19933.06494-.22665.147-.42036.42209-.48794a.3758.3758,0,0,0,.28112-.38463.41539.41539,0,0,1,.224-.37976.42843.42843,0,0,0,.19043-.25819,1.16968,1.16968,0,0,1,.60518-.746c.20744-.11347.19729-.25037.02638-.43377-.21651-.23305-.21416-.25678.01015-.487a.90685.90685,0,0,1,.30641-.20043c.17373-.07539.42034-.18591.42567-.35214.01341-.39835.293-.51465.55475-.67276l-.01109.01248c.2933-.22961.56537-.46314.49857-.90066a.12034.12034,0,0,1,.19791-.104.59866.59866,0,0,0,.67528-.03669.6252.6252,0,0,0-.09866-.3245,1.16729,1.16729,0,0,1,.02467-.98714c.05712-.1408.142-.24772.30593-.23742.38338.02451.05777-.22774.12643-.3306.06525.00874.12519.01873.18623.02434.4227.044.42394.01624.55289-.39443.072-.22884.08412-.5315.23741-.6709a.74717.74717,0,0,0,.23383-.76876.59187.59187,0,0,1,.3-.654l-.01155.00828c.16842-.66075.16748-.65966.649-.56272.0206.00374.04824-.02856.07461-.04512.03029-.1191-.13689-.16967-.10239-.29017a1.452,1.452,0,0,0,.63843-.16983c-.55383-.2752-.40382-.24818-.31142-.91626.22649-.01936.16078.28205.35745.322.0882-.11691.24929-.18153.2471-.36853a1.05889,1.05889,0,0,0-.12768-.06118c-.18232-.06026-.22821-.10989-.18356-.35419.03558-.19534.21447-.27972.207-.45524-.00438-.10107.13878-.21946.00656-.29345-.15422-.08641-.20917.0636-.27472.16834-.00657.01007-.05324-.00444-.08086-.007.08414-.391.12534-.43214.45329-.44579a.4811.4811,0,0,0,.37087-.16047c-.09005-.10934-.175-.19847-.24474-.29861-.12362-.17568-.083-.26629.13361-.30126a.70727.70727,0,0,1,.17326.00952c.00173-.05736.00265-.11425.00468-.17139l-.0128.002.00625-.011H87.2854c.04121-.1433.11753-.22876.22867-.19.08289.0288.046.12034.0089.19h.00655v.009a.3414.3414,0,0,0,.34732-.3818c.00545-.12745-.0317-.40062.16639-.41537.19434-.01435.06571.27644.20058.36933a.472.472,0,0,0,.05932.02645.98143.98143,0,0,1,.45142-.58738c.21447-.10044.21057-.33.19636-.53361-.0167-.25427-.21869-.14969-.3559-.16959a.13811.13811,0,0,1-.13314-.15632c.00593-.07883.077-.07883.13517-.10068.19466-.073.38821.06086.59082.023-.0359-.1365-.16062-.21867-.09912-.36307.06774-.158-.05947-.30125-.06118-.44845-.0039-.30914-.3186.01615-.36043-.18036.04043-.08492.08945-.14868.172-.16a.84229.84229,0,0,1,.36119-.01467c.12488.04378.072.18169.05449.2886a.08131.08131,0,0,0,.07727.09359.10458.10458,0,0,0,.11644-.05729.53761.53761,0,0,0,.035-.13314c.03121-.1988.15813-.471.0729-.58294-.22712-.3007.1678-.30219.16577-.46983a.34817.34817,0,0,0-.02466-.08945.41848.41848,0,0,1,.07071-.35035,6.249,6.249,0,0,0,.37992-1.08852c.18388-.48069.12-.988.25678-1.482a9.47967,9.47967,0,0,0,.28065-2.18968c.01827-.52127.04965-1.04.0434-1.56343C90.72336,53.88,90.63624,53.351,90.61158,52.816Z"/><path class="c" d="M87.447,65.12625l-.00623.011.01278-.002v-.009Z"/><path class="c" d="M87.43806,64.93628c-.11115-.03879-.18779.04667-.22884.19H87.447C87.48379,65.05662,87.52094,64.96508,87.43806,64.93628Z"/><path class="d" d="M60.16655,77.59887h6.89478l.10989-2.408-5.63651.05479-.16406-.82058-1.55562.40131-.12239-3.52053s5.76375.14548,8.5728-.693l.51043-1.8241.80263-.18248a7.05118,7.05118,0,0,0,.94842-2.55369,29.76733,29.76733,0,0,1-11.23559,2.29864s-21.39617.65652-26.75843,0c0,0-8.26265-.98527-9.52153-1.97037a3.474,3.474,0,0,0,.93016,2.51747l.71162.1639a5.03947,5.03947,0,0,0,.60191,1.86062s5.63651.96654,8.20769.56523l-.148,3.294-1.38424-.357-.16389.82058-5.63606-.05479.10942,2.408h6.94755l-.66464,14.72022a1.13718,1.13718,0,0,0,.13767.00343c.26645-.01.59861-.07148.81887.207a.20177.20177,0,0,0,.21916.04681,1.081,1.081,0,0,1,.92969.16032.48683.48683,0,0,0,.2115.08523,2.32439,2.32439,0,0,1,.87459.17482l.59455-15.45275H57.0297l.29111,15.1568a2.2317,2.2317,0,0,0,.46095-.28613.82642.82642,0,0,1,.30563-.09927c.14766-.03731.522-.26426.52947-.36183.01716-.21821.11644-.20776.28018-.15078.54758.19106.738.08133.81043-.44862.12925.04.14235.29363.31562.20917.14283-.06742.187.022.27566.07493.03654.02217.06947.03964.10179.0565l-.48921-14.09584Zm-22.27139-2.408-.164-.711-1.42218.21854.05433-3.17368c2.91925.253,5.97883.3345,8.81457.32623l.09695,3.33993ZM55.625,74.31545l-.21915.87538H47.99674L47.727,71.81969c5.15233-.10865,9.04685-.45924,9.04685-.45924l.27409,3.28342Z"/><path class="d" d="M24.7065,42.979l4.00176-4.10158h2.07081l-4.64759,4.65423,4.67421,5.62645H28.72824L25.0261,44.58372l-.3196.31961v4.25478H23.15509V38.87743H24.7065Z"/><path class="d" d="M33.04961,42.67275v3.72212q0,1.61148,1.27184,1.61135,1.27161,0,1.27169-1.61135V42.67275h1.49819v3.75537a4.1814,4.1814,0,0,1-.19309,1.34506,2.26054,2.26054,0,0,1-.64591.91221,3.148,3.148,0,0,1-3.85519,0,2.29485,2.29485,0,0,1-.65926-.91221,3.70848,3.70848,0,0,1-.18638-1.34506V42.67275Z"/><path class="d" d="M38.98224,42.67275h1.49818V43.272a3.13033,3.13033,0,0,1,.7391-.61259,1.7938,1.7938,0,0,1,.819-.16648,1.988,1.988,0,0,1,1.73779.95888,2.24969,2.24969,0,0,1,1.911-.95888q2.19062,0,2.19061,2.65679v4.00839H46.37325V45.55587a2.77852,2.77852,0,0,0-.22649-1.31836.82057.82057,0,0,0-.76564-.39289.97684.97684,0,0,0-.90221.4661,3.0012,3.0012,0,0,0-.283,1.49818v3.34921H42.691V45.57585q0-1.73111-.99868-1.73123a1.00109,1.00109,0,0,0-.9222.47281,2.94825,2.94825,0,0,0-.28971,1.49147v3.34921H38.98224Z"/><path class="d" d="M54.54988,42.67275h1.5049v6.48536h-1.5049V48.479a2.87727,2.87727,0,0,1-4.21483-.10653,3.61471,3.61471,0,0,1-.87224-2.477,3.50363,3.50363,0,0,1,.87224-2.43037,2.81191,2.81191,0,0,1,2.18406-.97215,2.758,2.758,0,0,1,2.03077.93219Zm-3.55564,3.2227a2.2588,2.2588,0,0,0,.49949,1.51817,1.63514,1.63514,0,0,0,1.29168.5926,1.7192,1.7192,0,0,0,1.34505-.57262,2.46508,2.46508,0,0,0,0-3.00964,1.69521,1.69521,0,0,0-1.33179-.57934,1.65623,1.65623,0,0,0-1.29167.586A2.16008,2.16008,0,0,0,50.99424,45.89545Z"/><path class="d" d="M57.94569,42.67275h1.5049V43.272a2.45571,2.45571,0,0,1,1.77118-.77907,2.2372,2.2372,0,0,1,1.76448.71249,2.91806,2.91806,0,0,1,.546,1.97755v3.97514h-1.5049V45.53589a2.37607,2.37607,0,0,0-.26629-1.325,1.07466,1.07466,0,0,0-.94546-.37291,1.15622,1.15622,0,0,0-1.05878.49271,3.391,3.391,0,0,0-.30625,1.6979v3.12951h-1.5049Z"/><path class="d" d="M65.11692,45.86884a3.22285,3.22285,0,0,1,1.0054-2.39041,3.54695,3.54695,0,0,1,4.914.00663,3.47245,3.47245,0,0,1-.00656,4.88072,3.43693,3.43693,0,0,1-2.48359.97879,3.296,3.296,0,0,1-2.4438-.99877A3.35859,3.35859,0,0,1,65.11692,45.86884Zm1.53143.02661a2.18737,2.18737,0,0,0,.51933,1.53815,2.01837,2.01837,0,0,0,2.81.00663,2.43457,2.43457,0,0,0,0-3.023,1.9935,1.9935,0,0,0-2.79657,0A2.0835,2.0835,0,0,0,66.64835,45.89545Z"/></svg>