<svg xmlns="http://www.w3.org/2000/svg" viewBox="0 0 105 100"><defs><style>.a{fill-rule:evenodd;}</style></defs><title>icon04</title><path class="a" d="M98.56246,18.86853h-1.0022c-.109.224-.21808.44525-.33325.66943-.07788.06208-.65979.663-.65979.663h-.6665c-.32978.44226-.66626.8811-.99952,1.32629q-2.816,2.321-5.64111,4.65131v.33a2.725,2.725,0,0,1-.993-.66327H87.9338c.112-.32978.221-.6662.33325-.99622.33276-.22076.65686-.445.993-.66626V23.5166c.44177-.33.8808-.66327,1.33222-.993v-.66327c.33026-.22394.66033-.44495.99353-.663v-.663c.333-.22418.66626-.44226.999-.66644.10577-.32984.218-.66626.33026-.99927.221-.10925.439-.21777.66327-.33325.10852-.32678.22076-.66.333-.98981h.33c.10584-.33325.221-.6665.33326-1.00268a4.87248,4.87248,0,0,1-2.98883-1.65638h-.99353c-.11817.33326-.22693.66651-.33594.99628-.33325.22424-.663.44226-.99628.6601v.66943h-.33618v.663c-.21832.109-.43909.21827-.65686.33326v.66c-.22125.11523-.43909.224-.66626.333v.66626c-.218.109-.439.22418-.66644.33319v.663c-.21808.11524-.43885.21808-.65985.33326v.663c-.22443.109-.44227.221-.6662.33v.663c-.22126.11548-.4455.22125-.66626.33325v.663c-.22126.109-.439.22424-.66327.33325v.66626h-.33v.66644c-.1214.19288-.45142.2428-.663.663-.66034-.20245-.28333.04059-.6695-.33325H82.283c.22742-.44495.44818-.88721.66943-1.32923h.33326v-.6665c.21777-.11176.43878-.21484.663-.333v-.66327c.22418-.11169.442-.21753.66327-.32977.10876-.33325.22076-.66327.33-.99628h.333c.112-.44519.21778-.884.33326-1.32629.33294-.22418.6662-.44226.99621-.663.11176-.44543.22077-.8872.32984-1.32946.22741-.115.44842-.22425.66644-.33326.6319-.9649.7063-2.0296,1.6593-2.65557v-.6662c-1.11767-.62274-1.946-1.66547-3.31885-1.99256-.37994-.37054,0-.14636-.6662-.33q-2.1578,4.64666-4.318,9.29638c-.43909-.11194-.88452-.21777-1.32629-.33.44177-1.32947.8872-2.662,1.32629-3.98505h.33618v-.66943h.33277v-.98987h.33325v-.66651H82.283v-.6662c.58539-1.08007,1.27338-1.57849,1.3327-3.3186-1.57843-.36438-2.39105-1.34509-3.985-1.65954-.33326.884-.66626,1.77453-.99628,2.65582h-.33325v.663h-.333v.99628h-.32727c-.115.44519-.22076.88428-.33276,1.32922h-.333v.66651h-.33325v.98987h-.33c-.52307,1.07116-.37354,1.97393-1.32929,2.65875V19.538c-.33319-.11517-.66644-.22418-.99945-.33642q.83579-3.15234,1.65931-6.30762h.33325V11.56464h.33618c.112-.663.221-1.32947.33-1.9925h.33325V7.91284q-2.15781-1.15842-4.31531-2.32257c-.442,1.32929-.88727,2.65234-1.32928,3.98187v1.32947c-1.32929,3.708-2.31958,8.25342-3.6521,11.95172-.10877.88452-.221,1.775-.333,2.66223h-.33032c-.22077,1.21112-.439,2.42817-.666,3.64862h-.333v.99952h-.33325V31.49h-.33325c-.109.88721-.218,1.76831-.327,2.65552h-.333q-.83139,3.65221-1.66223,7.30389c-1.14905.43286-3.14161-.09344-4.65131.333v.33H54.724v.33624H52.73446v.33H50.742v.33H48.74941V43.442H47.42312v.333H46.0909v.33319H44.76436v.333h-.9931v.33325h-.6662v.33c-.99628.33-1.99548.663-2.98883.993v.33625c-.33319.109-.66327.218-.993.33325-.112.218-.22742.43579-.33643.65979h-.663c-.10877.22424-.221.44226-.33325.66327-.97107.66626-1.35718.6101-1.99256,1.66571h-.663v.65979h-.66327a3.811,3.811,0,0,1-.993,1.65954h-.33918v.66626h-.33026c-.21783.663-.44177,1.3263-.663,1.99256h-.33c-.80615,2.00488-.0838,4.5487,0,6.64056.66028.58545.27411.65711.66028,1.32654h.33276v.666c.4455.33326.89045.66626,1.32654.99628v.327h.66919c.11224.22424.21808.44525.33.66925h.663v.33325h.66626v.333c1.884.21832,3.76111.43908,5.64459.66034v-.33625h2.65558q3.81575-1.48543,7.64008-2.98285c.109-.22076.22125-.44177.33-.666.44226-.109.88427-.218,1.32653-.33295.22724-.33325.445-.66034.663-.99359h.66626c.775-.8808,1.55054-1.77124,2.3255-2.65851.66034-.55426,1.32654-1.10528,1.98956-1.65954v-.66327c.21784-.10852.445-.22394.66925-.33295v-.66333c.218-.10852.439-.21753.66028-.32977.224-.66645.44177-1.32947.666-1.9925.22125-.11523.442-.22424.6662-.33325v-.99627h.33c.10907-.445.21808-.88727.33033-1.32953h.33294c.54169-1.24195-.16833-1.80835.9931-2.65851v-.33026c.66919.44226.67237.21826,1.32947,0,.17133.32409.62866.595.66626.66327v1.00268h.333v.663h.33295c.3706.68182.06555.80615.66327,1.32306v.333h.333c.10584-.22393.21485-.44177.33027-.65979.16168-.13995.666-.66943.666-.66943h.65711c.11517-.221.22418-.442.33642-.66009.44177-.32978.88086-.663,1.32929-.99946.112-.22076.221-.44818.333-.666h.66327q.49951-.65817.99921-1.3233c.33-.224.6571-.44819.99011-.66626v-.333h.66644c.333-.442.65986-.88428.99311-1.3263h.33618c.112-.22418.221-.44226.33-.66619h.66626c.66-.775,1.32629-1.54731,1.98931-2.32258h.6662c.55109-.66326,1.10828-1.32952,1.6623-1.99255h.6571c.66943-.7782,1.3327-1.55023,1.99573-2.32574H84.942c.55078-.663,1.1112-1.32605,1.66247-1.99256h.663c.77826-.884,1.55029-1.76831,2.3258-2.65551h.663c.554-.663,1.10821-1.32953,1.66247-1.98932.33326-.11225.666-.221.99628-.33326q.83139-.99939,1.65955-1.99578h.65979q.99939-1.16246,1.99255-2.3191h.66943q.82654-.99966,1.65314-1.999h.6662c.56042-.66327,1.11151-1.32629,1.6687-1.98932h.32385V20.864A7.5198,7.5198,0,0,1,98.56246,18.86853ZM7.57271,39.78986v1.99255h.333V43.442H8.239v.9992h.33v.99329h.33624V46.767h.33c.11517.43579.22125.884.33325,1.32306H9.895v1.00268h.33966v.663h.32684v.65979h.33295c.11224.44226.22131.88452.33008,1.32953.22442.109.44867.22424.6662.33v.66626c.21509.109.44226.218.66327.33325v.663c.21808.11224.442.22125.663.33v.66626c.33325.22125.6695.44543.99628.663v.33325h.66626a37.71313,37.71313,0,0,1,7.64007-22.587c.66327-.54779,1.32953-1.102,1.98664-1.65308v-.6665c.22693-.10584.44494-.22077.663-.32978.2301-.33.44818-.66327.666-.993h.66626c.5545-.6665,1.10846-1.33594,1.66272-1.99579h.65985c-.18372-1.36358-.73127-1.41058-.99628-2.65576-2.20416.57892-3.53961,2.88941-4.98132,4.31506-.61927.61976-1.5033.8996-1.99256,1.65931h-.993V29.50067c.327-.22424.66327-.44848.993-.6665.66651-.77826,1.32654-1.5503,1.99256-2.32556H23.513c.112-.221.21808-.44226.33624-.66327.884-.7782,1.76831-1.55024,2.65235-2.32874v-.66327c-.33918-.25213-.3266-.40442-.66626-.663v-.33h-.33c-.33594.43909-.65979.88135-.999,1.32629H23.8492c-.22424.33-.44226.663-.66626.99628-.66327.56043-1.3327,1.1117-1.99249,1.66248-.55725.66327-1.10828,1.32629-1.65955,1.98932h-.65985c-.37994.3706,0,.14318-.66943.33007-.28626-.37036.04675-.0465-.33325-.33007.358-2.69928,5.24609-4.95929,6.63794-7.30042h.33917c-.34241-.60712-.40173-.96832-.99628-1.3327v-.333H23.513c-.33.44525-.66644.8902-.99329,1.33246h-.66943q-2.32543,2.48895-4.6449,4.97815a3.47231,3.47231,0,0,1-1.32947-.33v-.99951h.3332c.663-.775,1.32336-1.55023,1.99255-2.32233h.66943c.1026-.21777.21485-.44519.32361-.66327a14.15373,14.15373,0,0,1,3.65186-2.98877c-.24573-2.0296-1.55945-2.57128-1.99256-4.31805a9.17861,9.17861,0,0,0-3.64862,2.3255c-.11517.22424-.22418.44226-.33325.6601h-.663c-.11194.22125-.21778.44842-.3332.66943-.66625.55078-1.32312,1.10528-1.98931,1.65631V19.538c-.445.32984-.89051.663-1.33252.99628-.10877.32977-.221.663-.33319.993-.221.10907-.445.22077-.65986.333v.66327c-.22741.11224-.44519.21808-.6665.32977-.11169.44873-.22394.88727-.33295,1.32953H10.2347v.66626H9.895q-.32629.99966-.65979,1.98932h-.33v.99622H8.569v.99951h-.33v.99627H7.90572V31.49c-.40173,1.3233-1.25165,6.20477-.663,8.29987Zm71.72473,7.6369h-.663c-.109.22424-.21808.44226-.33325.66327-.439.11224-.881.22125-1.326.333-.22449.33643-.44226.66968-.66327.99946-.44525.109-.89044.21807-1.32929.33325-.11218.218-.22125.439-.33319.65979h-.66626c-.10583.22125-.22125.44549-.32708.66327-.44519.10907-.88721.22125-1.32923.333-.109.22126-.22125.44226-.333.66327h-.66326c-.11225.22449-.22126.442-.33619.66626h-.66009c-.109.218-.22717.439-.333.663H69.341v.33325h-.66919v.33c-.44848.29565-.57922.25213-1.32629.333a6.15076,6.15076,0,0,0-1.66254-2.65557c-.28033-.37354.04328-.04969-.33325-.33326-3.04486,7.66828-9.15625,12.351-16.60028,15.60431q-1.15768.17239-2.32849.33326v.333c-1.24841.46991-6.99884,1.61255-8.96045.99921v-.33325h-.99628v-.33c-.55725-.11493-1.108-.224-1.6593-.33594-.112-.22131-.22424-.43908-.33325-.66626h-.6662c-.10583-.21484-.21783-.44226-.32684-.66626-.66944-.548-1.33246-1.09906-1.99573-1.65954v-.657c-.224-.11175-.445-.22076-.66626-.333V63.034c-.21777-.10877-.44177-.221-.663-.333v-.6662h-.33V61.0415h-.33594c-.37085-1.13324.05286-4.84118.33594-5.64465q1.1629-2.3205,2.32257-4.64484c.44519-.33648.88751-.66943,1.33246-.99627v-.663c.221-.11517.43585-.22424.6571-.33325q.83579-1.00415,1.66223-1.99249h.66626c.32709-.44824.66327-.88727.99628-1.33252h.66327c.11224-.221.22442-.442.33026-.66h.66919c.11224-.22424.21808-.44818.32977-.66626a6.35846,6.35846,0,0,1,2.31964-.99945,2.872,2.872,0,0,0-.663-1.32629h-.33032v-.993h-.33v-.99951h-.333c-.73767-2.26642.61658-6.28266,1.32654-7.30365.666-.551,1.33227-1.10822,1.99847-1.66272.21808-.32978.43909-.65979.65711-.99305h.666v-.32977h.66352c.11169-.22424.22076-.44848.3327-.6665h.99628v-.33625c2.49688.14637,3.03552,1.37629,4.318,2.65882.77551.663,1.55078,1.32947,2.32282,1.98633,1.20495,1.20813,2.00512,2.55,3.6521,3.32824v.663c1.13616.32062.62243.42322,1.32629.99621.75323-2.53411-.93421-6.65-.99036-9.63263.80023-.19921.72852-.34558,1.32953-.66326a2.93047,2.93047,0,0,0-.6665-2.3191H56.05623q-.49941-1.49918-.999-2.992c-.22449-.112-.44226-.22418-.66626-.33325-.10278-.44226-.215-.8808-.33-1.3263q-.66339-.49466-1.32653-.99621c-.10877-.224-.221-.445-.33-.66626h-.66919c-.109-.21778-.22125-.44226-.32977-.66626-.55451-.112-1.10852-.21778-1.65979-.32678v-.33326A14.78971,14.78971,0,0,0,41.7726,20.201c-.43884.10907-.8811.221-1.32336.33325-.11816.21759-.22394.445-.333.663-.44519.11224-.8808.21807-1.32947.33-.10876.22077-.21783.442-.33276.663h-.66351c-.10877.22125-.22425.44549-.33.663h-.66919c-.10907.22125-.21808.44873-.32709.66327h-.66626c-.3327.442-.663.88751-.993,1.33252H34.1357c-.43609.55127-.881,1.10846-1.32654,1.65949h-.663c-.44525.55108-.88727,1.10528-1.32953,1.65612-.993.88746-1.99249,1.778-2.98877,2.65876V31.49c-.663.551-1.32629,1.10529-1.99255,1.65308v.66919c-.33.22424-.666.44873-.98981.6665v.663c-.33917.224-.66626.44526-.99628.66626v.66327c-.22424.109-.44226.22077-.66626.32978v.66327c-.22418.11224-.44494.22125-.66327.33026-.11175.44818-.2304.88995-.33917,1.33221-.21484.109-.43878.224-.66.333v.6665h-.33c-.22424.663-.44824,1.32306-.66626,1.98609H20.188c-.10578.5545-.21479,1.10528-.327,1.66253a23.43755,23.43755,0,0,0-2.65558,10.62567v3.98505h.32709v1.65955h.33594v.99627h.33325c.10583.77521.22125,1.55048.33,2.3255h.33941c.21485.66626.43586,1.32331.65985,1.99256h.33v.6662h.327v.66034h.33624c.109.44494.218.884.32977,1.33221.22742.11224.4455.21826.66651.33v.66626c.32977.21826.66.439.9992.66327v.66027c.5481.445,1.10529.887,1.65955,1.32929v.66595q2.4841,1.99429,4.98132,3.98212A7.94071,7.94071,0,0,0,27.16482,77.645c-.10877.22418-.221.44177-.33.66595H26.175c-.23065.33326-.44843.663-.66968.99335-.44177.11517-.887.22418-1.326.33-.112.22418-.21777.442-.33.66919h-.66626v.33026H21.19045c-1.44128-.49518-5.79694-4.01618-6.31085-5.31751V72.99963a3.05819,3.05819,0,0,1-.66626-.66626c-1.95819.11548-1.952.67566-2.65235,1.99256h-.33642c-.10877.55127-.21784,1.10852-.33008,1.6593-.33295.22449-.65979.44226-.99945.66351v.663C9.23525,77.8692,8.569,78.42322,7.90572,78.974c.17774,1.39477.46723,1.08057.99951,1.99255h1.98926c.35529-1.3446,1.33868-1.97674,1.65955-3.32153h.663c.10907.3327.22449.66595.33325.99921.33625.21807.663.442,1.00244.66009q.15912.495.32685.99921c.66327.55127,1.32947,1.10205,1.99249,1.6593.21808.33026.44226.66351.66034.99628.66919.218,1.33862.44543,1.99847.66351.21827.33.44226.663.65705.99921h.33624v.66c.218.112.442.221.66626.33008.218.44494.442.88721.65979,1.32947a6.3061,6.3061,0,0,0,2.329-.33v-.99945h-.33V83.2923c.07166-.1463,2.03626-1.13025,2.32575-1.32947.21484-.336.43585-.663.65985-.99628h.663c.11219-.22076.21826-.43878.33-.663.33643-.11524.6662-.22718.99628-.33594v-.33325h.66351c.11169-.21485.221-.43909.33594-.66034.439-.1117.88428-.22394,1.32629-.32977.109-.221.22449-.44526.333-.66651.44226-.10852.88452-.2207,1.32629-.3327v-.33325c.61335-.184,2.27607.55743,2.65607.666,2.4375.10907,4.86585.22125,7.30981.33325-.10907,1.32337-.22424,2.65558-.33325,3.98212-.42.35822-.34564.59454-.66919.99921h-.32983v.66034c-.99353.66919-1.98981,1.32922-2.98877,1.99524h-.99353a18.225,18.225,0,0,1-6.64386.99353H26.50155v.336c-.66626.109-1.33222.218-1.99524.3332v.32983c-.65711.218-1.32337.44226-1.98664.66351v.33271h-.66943v.33325c-.44177.33032-.884.6571-1.326.99627a4.58682,4.58682,0,0,0,.99628,2.32282,3.94043,3.94043,0,0,0,2.65875-.66626c.109-.22125.218-.44544.32709-.66327h.663c.2301-.333.44818-.663.666-.99329h.66626c.10925-.22424.22125-.44818.33325-.666h.663V89.2699h1.3263v-.33325c.55444.10907,1.10846.22448,1.66571.33325.2771.37036-.05292.05291.32678.33032a5.89939,5.89939,0,0,1-1.329,2.32251c-.21808.11175-.4361.22076-.66351.336-.554.7876-.61634,1.71539-1.3263,2.3255a13.02867,13.02867,0,0,0,.33,3.98236c1.4353-.0282,1.3327.149,1.99573-.66626h.33v-1.3327h.33625V95.24457h.32678v-.66034h.33325V93.918c.66626-.554,1.32654-1.108,1.98956-1.6593v-.66919c.33918-.22424.666-.43909.99628-.663v-.33007h.66919c.21808-.33027.44226-.66944.66034-.99622h5.64435V89.927h.663v.33917a3.19006,3.19006,0,0,0,2.659.33027V89.2699h-.33325v-.666c-.439-.22125-.881-.44549-1.32331-.66351-.025-2.25708.09662-3.3468.99622-4.64813.32709-.221.66034-.44178.9931-.666v-.66351c.33619-.22076.66352-.445.99622-.663v-.666c.33032-.22125.66034-.4455.99628-.6662v-.66327c.33325-.21808.66626-.442.99627-.66009.109-.33326.22449-.66651.33326-.99921h.333c.109-.33325.22419-.66351.33-.99628h.99628v-.33325c.44226-.10577.881-.22125,1.32922-.33026v-.33276h.99359v-.33619c.44495-.10607.89044-.21832,1.32923-.33007v-.33c.55426-.11224,1.10827-.22443,1.65954-.33026.11176-.221.22717-.44177.333-.663h.666v-.33325h4.97864v-.33H62.6971V72.6637c1.39185-.46106,2.04248.03411,2.98584-.99628a6.29919,6.29919,0,0,1,2.32849.33276c-.09936,2.35688-.82171,2.83008-1.66223,4.31531v.666c-.22448.109-.43878.21826-.66626.33026-.109.44525-.22125.8872-.33325,1.33246-.218.10583-.442.21807-.66.32977-.112.44549-.22425.88452-.33619,1.32953-.32983.22424-.66009.44226-.9931.663v.66028c-.218.11524-.44519.22424-.66327.336v.66351c-.59771.84668-1.2857.56018-1.66223,1.99549a3.6349,3.6349,0,0,0-1.65954.99011v.33594h-.66c-.112.218-.221.44226-.33917.66351H54.724c-1.85852.15869-8.01361.46673-8.96344,1.329-.3327.109-.66.218-.99622.33026a3.37646,3.37646,0,0,0,.33619,1.32953c3.1416-.047,4.62658-.99335,7.63391-.99628-.39209,1.45679-.8.89-1.65955,1.66223-.22394.33027-.44818.66034-.66571.99329h-.66351c-.112.21783-.221.442-.33.66327h-.66626c-.221.336-.44177.66626-.663.99628h-.66327c-.221.336-.44819.66626-.66626.999h-.666c-.21808.327-.44226.6662-.663.99622h-.66352c-.21783.14636-.23339.43908-.666.66351v1.32629h.33325c.11176.333.21753.66626.33276.99628.66352-.106,1.32654-.22125,1.9925-.33v-.66626h.66626c.22125-.33642.439-.66644.66327-.99621.99328-.88135,1.99255-1.77179,2.98852-2.65284.10608-.22424.22125-.445.33057-.666h.663c.78143-.88751,1.55023-1.77155,2.32251-2.662h.99927v1.33246c-.22125.10584-.44843.21783-.66626.33008v.66919c-.43579.33026-.881.66028-1.32629.99627v.663c-.221.11218-.43879.218-.66327.327-.38294.42028-.554.97424-.99921,1.3327.0838,1.42889.21185,1.12384.66919,1.99255,2.00812-.109,1.17993-.21484,1.98657-1.3327.333-.21808.66626-.442.99927-.65985v-.66351c.333-.22394.666-.44495.99628-.66919v-.65979c.33-.22126.66327-.44226.9992-.66626v-.66028q.66339-.504,1.32953-.99927v-.663c.218-.11225.43579-.22126.66-.33027.66009-.88726,1.32928-1.77124,1.98931-2.65557,1.14881-.09638,2.2605-.67884,2.98883,0,1.39478.02478,1.75617.19928,2.32874-.66919h.33295a4.72576,4.72576,0,0,0-1.9925-2.31958,5.01292,5.01292,0,0,1,.66028-2.659c.33325-.22076.66626-.445.99927-.663v-.666c.33295-.22125.66327-.4455.99622-.6662v-.66327c.22448-.10907.43884-.21808.66327-.33032.112-.32977.21783-.663.33007-.99628h.33594v-.666c.218-.112.439-.22125.65711-.33026v-.666c.33642-.22125.66943-.44525.99945-.663v-.66626c.21783-.109.445-.218.66626-.33v-.66351c.221-.10852.442-.22077.66326-.32978v-.66327c.333-.22076.666-.44818.999-.66626a13.0841,13.0841,0,0,0,.99035-2.65551,4.47421,4.47421,0,0,1-.99035-1.32953c-1.14533-.03412-3.05085-.22718-3.6518.33325a11.81209,11.81209,0,0,1-3.658-.33325,3.96,3.96,0,0,1,.99927-2.65552c.218-.11523.442-.221.66327-.33325v-.66925c.333-.218.666-.43579.99622-.657V63.367c.21783-.10876.442-.22076.666-.333v-.666c.33325-.21808.65711-.44226.99353-.66034v-.6662c.333-.221.663-.43908.9931-.66009v-.6662c.33619-.221.66919-.445.99945-.663v-.66651c.333-.224.666-.44177.999-.663V57.0564c.21808-.11194.43908-.221.66327-.33v-.6662c.32708-.221.66009-.442.99334-.66333.11194-.32977.221-.663.33319-.99622.22077-.10852.43885-.21759.65986-.333v-.66327c.22418-.10852.44818-.224.66943-.32978v-.6665c.33-.22076.66327-.43878.99628-.663V51.0788c.33276-.21778.66-.442.993-.66327.70355-.98981,1.08648-2.21967,1.98932-2.98877V46.767c-.32685.109-.65979.218-.99305.32678Zm-27.892-22.91065h1.329c.31793.59455.47345.51343.66327,1.32923H53.734v.33325h-.33624c-.109.33-.221.65985-.33027.993a2.90158,2.90158,0,0,1-2.3255-.663C50.81685,25.07977,50.94442,25.38483,51.40548,24.51611ZM8.90523,75.65247h.33v-.99628q-2.49381-.33664-4.97815-.66351v.33325c-.80939.20245-.73492.34558-1.3327.66028-.11176.55725-.224,1.108-.333,1.66253.663.19922.2865-.04376.663.33277.55451-.11176,1.1117-.224,1.66572-.33277.10284-.22125.21807-.439.33-.66351C7.10872,75.26013,6.98733,77.94067,8.90523,75.65247Z"/></svg>