<svg xmlns="http://www.w3.org/2000/svg" viewBox="0 0 100 100"><defs><style>.a{fill:#76c6bd;}</style></defs><title>icon09</title><path class="a" d="M22.82788,60.60846a3.951,3.951,0,1,0,3.95022,3.951A3.94951,3.94951,0,0,0,22.82788,60.60846Z"/><path class="a" d="M18.99616,36.90241,15.30269,48.2418H34.12553v-12.584h-13.016A3.07174,3.07174,0,0,0,18.99616,36.90241Z"/><path class="a" d="M50.2622,0a50,50,0,1,0,49.99013,50A49.99505,49.99505,0,0,0,50.2622,0ZM37.83874,65.32991H30.70858a7.89825,7.89825,0,0,1-15.72191,0H11.11545A3.233,3.233,0,0,1,7.896,62.10984V55.59068a15.22735,15.22735,0,0,1,.9678-4.74121l5.86609-16.55473a5.96468,5.96468,0,0,1,4.76-2.825H37.83874Zm43.5315,0a7.89825,7.89825,0,0,1-15.7219,0H42.36175V27.262H88.91517V65.3299H81.37024Z"/><path class="a" d="M73.48954,60.60846a3.951,3.951,0,1,0,3.95023,3.951A3.94952,3.94952,0,0,0,73.48954,60.60846Z"/></svg>