<svg xmlns="http://www.w3.org/2000/svg" viewBox="0 0 100 56"><title>icon15</title><path d="M98.82145,26.59763a1.37728,1.37728,0,0,0-1.43531-.47351l-32.95979,4.411a6.768,6.768,0,0,1-1.19558,3.05358c.00594-.033.01208-.0629-.009.009-.00306-1.8699-.33562-2.12171-1.12366-6.74849a24.39081,24.39081,0,0,0-4.36615-9.37037l4.04837-1.86395a.718.718,0,0,0-.48541-1.3515L55.769,15.61494a9.35727,9.35727,0,0,0-4.53089-1.783l-.59031-6.35878a.71771.71771,0,0,0-1.43531-.01784l-.63539,6.37375a9.39314,9.39314,0,0,0-4.5399,1.78608l-5.52587-1.3515a.718.718,0,0,0-.48541,1.3515l4.04837,1.86395a24.39512,24.39512,0,0,0-4.36616,9.37037c-.788,4.62679-1.12078,4.8786-1.12366,6.74849a.311.311,0,0,1,.01208.03893l-.01208-.01208a6.72072,6.72072,0,0,1-1.20766-3.08945L2.423,26.12431a1.373,1.373,0,0,0-1.43531.47352.99157.99157,0,0,0,.17088,1.32446c1.39638,1.95389,4.92655,3.10459,6.72452,3.93751l9.66706,2.52925c-.10184.07786-.19773.15592-.29074.23666a5.20924,5.20924,0,0,0-1.732,3.30233,5.39193,5.39193,0,0,0-.03606.62329,5.23124,5.23124,0,0,0,4.60876,5.18412h0l.033.00306-.027-.00306a5.33175,5.33175,0,0,0,.61736.03605,5.22556,5.22556,0,0,0,5.18123-4.60876,4.84186,4.84186,0,0,0,.03894-.62023,5.22,5.22,0,0,0-.42557-2.06168l13.88937,3.638a13.30138,13.30138,0,0,0,20.99132,0l13.88938-3.638a5.2205,5.2205,0,0,0-.42557,2.06168,4.87412,4.87412,0,0,0,.03893.62023,5.22556,5.22556,0,0,0,5.1843,4.60876A5.27672,5.27672,0,0,0,79.7,43.73545l-.06291.009.06885-.009a5.23738,5.23738,0,0,0,4.61183-5.18412,5.39547,5.39547,0,0,0-.03893-.62329,5.21106,5.21106,0,0,0-1.732-3.30233c-.09283-.08093-.18872-.1588-.28768-.23666l9.66418-2.52925c1.798-.8331,5.328-1.98381,6.72452-3.93751A.99563.99563,0,0,0,98.82145,26.59763ZM20.406,41.12833l-.033-.00595.036.00595Zm2.89479-2.27455v-.00307a2.60853,2.60853,0,0,1-2.57719,2.29546,2.78918,2.78918,0,0,1-.31472-.018,2.59671,2.59671,0,0,1-2.29258-2.577,2.74641,2.74641,0,0,1,.018-.31471,2.60271,2.60271,0,0,1,2.57719-2.29258,2.64323,2.64323,0,0,1,.30858.018h.00307a2.6085,2.6085,0,0,1,2.29546,2.58007A2.81673,2.81673,0,0,1,23.30079,38.85378ZM48.90394,25.2492H44.90352a2.43633,2.43633,0,0,1,0-4.87265h4.00042Zm5.999,0H50.9054V20.37674h3.99754a2.43623,2.43623,0,1,1,0,4.87246ZM79.40046,41.12833h-.00307l.06885-.009Zm1.63918-.86015a2.5998,2.5998,0,0,1-1.64225.86,2.77646,2.77646,0,0,1-.31165.018,2.6085,2.6085,0,0,1-2.58007-2.29546,2.68264,2.68264,0,0,1-.018-.30858,2.60848,2.60848,0,0,1,2.29546-2.58007h.00306a2.64342,2.64342,0,0,1,.30859-.018,2.59671,2.59671,0,0,1,2.577,2.29258,2.74885,2.74885,0,0,1,.018.31472A2.59446,2.59446,0,0,1,81.03964,40.26818Z"/><path d="M36.5847,33.62479v-.027C36.55171,33.48383,36.5847,33.62479,36.5847,33.62479Z"/></svg>