<svg xmlns="http://www.w3.org/2000/svg" viewBox="0 0 100 84"><title>icon13</title><path d="M10.47534,33.20622c.41205-.90249,1.20243-2.3853,2.58712-4.98928.63628-1.19974,1.34827-2.52272,2.07694-3.87925H8.7543a4.43427,4.43427,0,1,0,0,8.86853Z"/><path d="M91.73187,24.33787h-6.3851c.73154,1.35671,1.44066,2.67969,2.07694,3.87925,1.38469,2.604,2.1722,4.08661,2.58712,4.98928h1.721a4.43427,4.43427,0,0,0,0-8.86853Z"/><path d="M11.38626,71.64543a5.97727,5.97727,0,1,0,11.95453,0V65.99188H11.38626Z"/><path d="M77.14,71.64543a5.98,5.98,0,0,0,11.96008,0V65.99188H77.14Z"/><path d="M88.25068,34.31627c.30281.08969-11.066-20.77534-11.60974-21.90206C75.20585,9.42634,71.6574,7.624,68.19846,7.624H32.28466c-3.46163,0-7.00165,1.8023-8.44248,4.79017C23.29845,13.54093,11.93537,34.406,12.2353,34.31627c0,0-3.67743,3.669-3.95781,3.96337-1.54721,1.6622-1.43509,3.1-1.43509,4.54083V59.42506c0,3.09729.55215,4.793,4.20447,4.793H89.439c3.65214,0,4.20716-1.69575,4.20716-4.793V42.82047c0-1.44066.10925-2.87862-1.44353-4.54082C91.93368,37.98527,88.25068,34.31627,88.25068,34.31627ZM21.64217,27.91718s7.30159-13.15139,7.73319-14.01173c.7371-1.46882,2.83934-2.53384,4.98929-2.53384h31.757c2.15265,0,4.252,1.0652,4.98929,2.53384.43447.86052,7.73606,14.01173,7.73606,14.01173.6727,1.21086.07857,3.4645-1.91442,3.4645H23.55372C21.56073,31.3815,20.96947,29.128,21.64217,27.91718Zm-.9755,29.2485a6.70881,6.70881,0,1,1,6.70745-6.70746A6.70838,6.70838,0,0,1,20.66667,57.16568ZM60.42885,58.9791a.88826.88826,0,0,1-.88581.8885H40.94582a.88884.88884,0,0,1-.88851-.8885v-8.193a.88524.88524,0,0,1,.88851-.88007h18.5974a.88465.88465,0,0,1,.88581.88007v8.193ZM79.8195,57.16568a6.70881,6.70881,0,1,1,6.71015-6.70746A6.71083,6.71083,0,0,1,79.8195,57.16568Z"/></svg>