<svg xmlns="http://www.w3.org/2000/svg" viewBox="0 0 100 100"><title>icon14</title><path d="M76.772,94.22267h9.47451L70.33944,75.28a13.33817,13.33817,0,0,0,10.792-13.08634V22.55953c0-8.59961-8.35158-13.33686-30.28656-13.33686-21.93647,0-30.28689,4.73725-30.28689,13.33686V62.19377A13.332,13.332,0,0,0,31.51669,75.30435L15.63016,94.22267h9.47451L35.776,81.51019H66.09558ZM67.79476,65.30823a4.61134,4.61134,0,1,1,4.61141-4.61142A4.61219,4.61219,0,0,1,67.79476,65.30823ZM38.75564,15.09431a.6344.6344,0,0,1,.63584-.63584H62.29831a.6344.6344,0,0,1,.63584.63584v3.96146a.63525.63525,0,0,1-.63584.63584H39.39148a.63514.63514,0,0,1-.63584-.63584Zm-11.59088,28.551V26.89752a2.96655,2.96655,0,0,1,2.96836-2.967H71.55783a2.96691,2.96691,0,0,1,2.967,2.967V43.64534a2.96787,2.96787,0,0,1-2.967,2.968H30.13312A2.96752,2.96752,0,0,1,27.16476,43.64534Zm2.11869,17.05147a4.61075,4.61075,0,1,1,4.61025,4.61142A4.61119,4.61119,0,0,1,29.28345,60.69681Z"/></svg>