<svg xmlns="http://www.w3.org/2000/svg" viewBox="0 0 100 84"><title>icon16</title><path d="M47.22407,43.62212v6.10643a3.16482,3.16482,0,0,0,6.32963,0V43.62212a3.16482,3.16482,0,0,0-6.32963,0Z"/><path d="M51.70209,27.882V37.99741a5.78876,5.78876,0,0,1,4.47413,5.62471v6.10643a5.78813,5.78813,0,0,1-11.57625,0V43.62212a5.79222,5.79222,0,0,1,4.478-5.62472V27.882A17.21307,17.21307,0,0,0,33.16854,45.03554V62.28131a17.2202,17.2202,0,0,0,34.4404-.00014V45.0354A17.21069,17.21069,0,0,0,51.70209,27.882Z"/><path d="M61.5077,22.57616a1.96985,1.96985,0,0,0-.50346-2.73808h-.0013a18.70624,18.70624,0,0,0-21.22926,0,1.96783,1.96783,0,0,0,2.232,3.24154,14.77062,14.77062,0,0,1,16.76406,0A1.96982,1.96982,0,0,0,61.5077,22.57616Z"/><path d="M67.12205,10.9296a29.49613,29.49613,0,0,0-33.46661,0,2.0335,2.0335,0,0,0,1.15708,3.708,2.01493,2.01493,0,0,0,1.15174-.35865,25.42305,25.42305,0,0,1,28.849,0,2.034,2.034,0,0,0,2.30883-3.34932Z"/></svg>