<svg xmlns="http://www.w3.org/2000/svg" viewBox="0 0 116 100"><title>icon01</title><path d="M41.64594,88.2763a.75791.75791,0,0,0-.74041-.05442.86389.86389,0,0,0-.22678.05468,2.86092,2.86092,0,0,0-1.94606,2.89487,2.71422,2.71422,0,0,0,2.5233,2.51973,2.42859,2.42859,0,0,0,2.31526-2.30585A3.50627,3.50627,0,0,0,41.64594,88.2763Zm-.24005,3.692c-1.09121.32961-1.24447-1.59306-.32145-2.02585a1.92122,1.92122,0,0,1,.71794.85941C41.945,91.19019,41.87667,91.82615,41.40589,91.9683Z"/><path d="M49.44127,88.65153a.71547.71547,0,0,0-.83388-.40927,2.09433,2.09433,0,0,0-2.9398.64025,3.56906,3.56906,0,0,0,.00872,4.29451,2.42594,2.42594,0,0,0,3.616.02021C50.52367,91.90911,50.16572,90.09392,49.44127,88.65153Zm-1.05313,2.76152c-.11054.47368-.544,1.0219-1.08644.8809-.63064-.16393-.69986-1.01088-.61187-1.51834.02872-.16563.58592-1.675.94191-1.18047a.85661.85661,0,0,0,.54227.35191A2.43842,2.43842,0,0,1,48.38814,91.41305Z"/><path d="M55.22919,93.07861a1.56117,1.56117,0,0,0,.38909.44126,8.79964,8.79964,0,0,1,2.20378.532c1.24234.04617,1.97478-.01,2.4317-.59221a6.89217,6.89217,0,0,0,2.10417-1.08632,7.05148,7.05148,0,0,0,1.21439-9.83347.859.859,0,0,0-.67739-.364.80412.80412,0,0,0-.38966-.61489c-.05756-.0365-.11819-.06663-.17657-.10156a.8556.8556,0,0,0-.83112-.91834A38.45606,38.45606,0,0,0,57.3,80.258a.76433.76433,0,0,0-.6377.2883A6.50458,6.50458,0,0,0,52.96844,82.924a6.65837,6.65837,0,0,0,2.26075,10.15458Zm6.83734-9.73983c.012.02.02157.03991.0362.06a5.42518,5.42518,0,0,1-.28315,7.20287,5.2479,5.2479,0,0,1-.91838.70488Q61.48383,87.32273,62.06653,83.33878Zm-5.09673,4.8369c.28629-2.03023.69-4.03808,1.16545-6.03184.00689-.02885.00723-.05544.01136-.08335a6.17026,6.17026,0,0,1,2.34116.39939l-.74632,5.103-.46781,3.19858a6.803,6.803,0,0,1-.15828,1.22731,5.06152,5.06152,0,0,1-2.49645-.16572c-.01281-.01957-.03153-.03612-.04267-.0565C56.27227,91.21078,56.89231,88.72488,56.9698,88.17568Zm-2.93164-3.82381a4.70078,4.70078,0,0,1,2.29117-1.92049,66.317,66.317,0,0,0-1.31373,7.80529c-.02345.224-.04276.43734-.0585.64442-.03732-.03208-.07676-.06-.11339-.09344A5.02956,5.02956,0,0,1,54.03816,84.35187Z"/><path d="M75.97943,79.54791c4.38151.18742,3.40459-6.22709,3.412-8.91773l.02446-8.87289c1.07815.045,2.17187.08777,3.23373.04093a.9041.9041,0,0,1,.60472-.21818,2.772,2.772,0,0,0,1.95237-.73952l.0025-.0659a5.64865,5.64865,0,0,0,.19036-1.80779c.00064-.03672-.00009-.07178.0003-.10811a14.43644,14.43644,0,0,0-1.22434-2.638c-.19564-.01919-.39114-.04161-.5872-.06871-.00008.01489,0,.02978-.00008.04467a14.2121,14.2121,0,0,0-4.10457.1148c.03254-.81683.07849-1.63378.1427-2.45192a.85957.85957,0,0,0-.85095-.85094l-.513-.00111c-.02284-.00064-.045,0-.06748-.00017q-.97422-.002-1.94849-.00412a.86243.86243,0,0,0-.85095.85094c.00277.30179.018.60213.02557.90328a.76131.76131,0,0,0-.19414.56q.39275,11.69-.09846,23.37954A.86472.86472,0,0,0,75.97943,79.54791Zm3.44416-20.58848c.002-.31179.00744-.62328.0128-.93485,1.47541-.27111,3.4262-.46547,4.11036.29421q-.02393.86305-.05224,1.72078c-.08642-.01166-.21227-.02476-.39974-.03195-.55673-.0214-1.1178-.00094-1.6752-.00136q-.99753-.00084-1.995-.00162c-.00043-.14406-.00264-.28838-.00273-.43241ZM77.09225,63.36a1.64323,1.64323,0,0,0,.61681.18733q-.00286,1.02932-.00566,2.05865-.0081,2.93079-.01617,5.86161c-.00323,1.17064.51163,5.02568-.81465,6.099Q77.145,70.46486,77.09225,63.36Z"/><path d="M92.16291,56.80207c-.0945-2.72779-.13853-5.57837-.32-8.41448-.2261-1.98011-.48623-3.95668-.79185-5.92845q-.23448-1.41261-.46823-2.82539a11.07353,11.07353,0,0,0-7.93663-7.99739,6.49314,6.49314,0,0,0-.78282-2.57267c-.07209-.07109-.14459-.14121-.21645-.21286a1.69228,1.69228,0,0,1-.34361-.48325c-.05676-.03519-.11194-.07131-.169-.10633a1.57515,1.57515,0,0,1-.81172-1.31951C76.49983,22.714,70.06345,21.316,64.68578,20.60084c-6.95784-.92524-14.47521-1.667-21.37765-.01783-2.04873.48951-6.11425,1.30152-6.91333,3.67957a2.1346,2.1346,0,0,0,.2309,1.93909c-3.89673.683-7.81252,1.99287-10.61813,4.63484a5.69873,5.69873,0,0,0-1.99784,4.65058,58.348,58.348,0,0,0-7.84963,5.91479.77241.77241,0,0,0-.26277.45041c-1.10559,1.0065-2.19825,2.02729-3.25206,3.0828A34.64956,34.64956,0,0,0,4.4711,56.77458a.69723.69723,0,0,0,.04233.65451c-.07194.28089-.13513.56549-.18065.85686a.86924.86924,0,0,0,.20639.72394c-.14,1.34874-.19448,2.67694-.22694,3.86235-.21355,7.80712-.01447,15.726,1.809,23.35635.74011,3.09718,1.59305,6.58108,3.56984,9.15748,1.85948,2.42349,4.45644,2.9718,7.3482,3.29439a230.5093,230.5093,0,0,0,25.54341,1.40321q6.5036,0,13.00043-.36288c.67774-.03787,1.38866-.05685,2.11528-.0745a.17889.17889,0,0,0,.19151.0893c.25252-.03527.50316-.077.7553-.11326.31361-.00842.62872-.01757.945-.02965.00745-.02141.01758-.042.02711-.06268a1.0189,1.0189,0,0,0,.09849.03472,7.23531,7.23531,0,0,0,5.3624-.84065c.0925.00166.18521.00711.27763.00749.23375-.08054.4644-.16649.68884-.26307a6.28275,6.28275,0,0,0,.717-.37054.77244.77244,0,0,0,.53737.19929c.02111-.00094.04021-.00855.061-.01089a1.52329,1.52329,0,0,1,.24622-.32017c.73139-.71458,1.48958-1.39606,2.265-2.05618q3.946-4.13916,7.892-8.2782c1.16256-1.21941,2.38681-2.35882,3.45377-3.583.00149-.06557.006-.12833.01-.19155,1.76324-1.76014,3.50823-3.53815,5.21386-5.35466,1.656-1.76366,3.77326-3.57788,4.8903-5.75864,1.07355-2.09583.89157-4.65356.92416-6.93775Q92.31964,61.3038,92.16291,56.80207ZM39.16577,23.82915a7.55937,7.55937,0,0,1,.85112-.38292,21.02033,21.02033,0,0,1,1.971-.735,26.53809,26.53809,0,0,1,3.57593-.85724,41.54581,41.54581,0,0,1,7.94688-.45777,73.348,73.348,0,0,1,16.449,1.92029,22.04214,22.04214,0,0,1,6.86351,2.87543c1.746,1.1823,5.79715,4.79962,3.37876,6.87312-1.45082,1.24395-3.51291,1.02875-4.92225,2.52063a5.42706,5.42706,0,0,0-1.42861,3.02293,6.67432,6.67432,0,0,0-1.39355-.54686,4.70564,4.70564,0,0,0,.47151-2.95111c-.733-4.15955-6.35919-6.56206-10.00868-7.613a26.2753,26.2753,0,0,0-2.93546-.88439c-6.0198-1.452-12.51055-1.45771-18.65556-.98518-.58592.04506-1.18524.10041-1.79094.16559-.00613-.01621-.01591-.0311-.02294-.04706-.05454.00617-.10858.01532-.1635.01813-.02919.013-.0591.0237-.088.03753a.304.304,0,0,1-.34345-.04821c-.06965-.00715-.13921-.01574-.20839-.0277a.25079.25079,0,0,1-.18819-.1541.31418.31418,0,0,1-.137-.32124c-.02706.01077-.05361.01638-.08088.03017A1.38274,1.38274,0,0,1,39.16577,23.82915ZM76.3204,38.58a5.33653,5.33653,0,0,0-.376,1.31369,1.45521,1.45521,0,0,1-.35778.00059c-.02251.00179-.04535.00077-.0679.00222a4.51264,4.51264,0,0,1,.06628-1.248.21273.21273,0,0,1-.02458-.09471,2.20933,2.20933,0,0,1,.73249-1.438,4.73934,4.73934,0,0,1,2.54138-1.53723c.32166-.08629.64881-.16577.97127-.25639a24.11826,24.11826,0,0,0-2.09634,1.33973,5.75458,5.75458,0,0,0-.80951.89749l-.02586-.01026c-.06089.07378-.11952.14883-.17845.224-.0642.10288-.13079.20436-.19171.30919l-.00962.01906c-.06544.15781-.13258.31485-.20423.46977ZM68.17661,42.3112a2.84573,2.84573,0,0,1,.4473.21729,2.01372,2.01372,0,0,1,1.08457,1.736c.06344.97106-.4539,1.41266-1.53243,1.34258,0-.024.00362-.04548.00175-.07058A12.74541,12.74541,0,0,1,68.17661,42.3112Zm.40875-2.49284c-.20419.16181-.43475.32974-.66714.50708l-.01136.01072c-.05753.06565-.121.12547-.17462.19474-1.091,1.4081-.55988,2.98886-.88647,4.59165a.26553.26553,0,0,1-.38514.18853l.00409.063c-.27788-.04038-.55818-.09288-.83942-.15053l-.03144-.00638c-.07909-.01638-.15776-.03094-.23707-.04847a1.00279,1.00279,0,0,0-.08846-.27225l-.09815-.19628c.0151-.01157.02706-.02706.04127-.03978a6.61867,6.61867,0,0,1-.05361-2.213,1.95915,1.95915,0,0,1,.66774-1.34777,4.92462,4.92462,0,0,1,.44453-.52558.227.227,0,0,1,.08646-.05421c.05509-.06369.10589-.13006.16764-.18959a7.37048,7.37048,0,0,1,1.20731-.8606,5.91584,5.91584,0,0,0,2.14974-3.3868,6.616,6.616,0,0,0,.04765-1.36819,6.30619,6.30619,0,0,0-.41751-1.85455c1.53587,1.44116,2.72494,3.456.83669,5.24871a2.70487,2.70487,0,0,1-.38344.30089c-.08675.08791-.184.1713-.27663.25661a5.24563,5.24563,0,0,1-.85048.93769A.5144.5144,0,0,0,68.58536,39.81836Zm2.68647-.2632a4.86341,4.86341,0,0,1,.92209.18589L71.121,39.67991C71.17274,39.64,71.22188,39.59711,71.27183,39.55516ZM25.71225,34.42039c.25775-1.4829,1.61637-2.60261,2.79544-3.38195a22.6186,22.6186,0,0,1,8.03215-3.07421,62.12044,62.12044,0,0,1,17.16432-.62106A37.7037,37.7037,0,0,1,61.718,28.73476c.00472.007.012.0126.017.0194a9.77862,9.77862,0,0,1,2.986,1.271,6.69345,6.69345,0,0,1,3.42577,4.1712,4.73268,4.73268,0,0,1-.55311,3.44692,2.50532,2.50532,0,0,1-1.15427,1.08781,2.97672,2.97672,0,0,1-.30293.34489c-1.16231,1.11758-2.079,1.90535-2.309,3.60528-.04186.3094-.04067.67561-.09407,1.01943a3.78454,3.78454,0,0,0,.16951.694c.11228.31553-.295.4613-.50478.29383-.007-.00557-.0114-.01285-.01821-.01851-.81363-.21839-1.62194-.43075-2.40541-.56166A87.64712,87.64712,0,0,0,49.204,42.9954a170.96815,170.96815,0,0,0-18.96807.6811.8215.8215,0,0,0,.04706-.2652v-.49265a.77273.77273,0,0,0,.21273-.571q-.01928-1.10079-.03859-2.20165a.9855.9855,0,0,0-.00174-.09956q-.01243-.71162-.02493-1.42321a.86411.86411,0,0,0-1.07717-.82057,3.20442,3.20442,0,0,1-3.3962-1.7018.9214.9214,0,0,0-.27533-1.01318A2.75143,2.75143,0,0,1,25.71225,34.42039Zm2.97537,9.38473q-2.11317.17748-4.2243.36489c-.37024-1.17652-.86426-2.57871.34885-3.08451a9.28656,9.28656,0,0,1,3.95493-.26507q.01053.59846.021,1.19686a.81684.81684,0,0,0-.20695.54307v.85094A.83451.83451,0,0,0,28.68762,43.80512ZM68.81333,91.843A9.36692,9.36692,0,0,1,67.204,95.49789a.9064.9064,0,0,0-.46781.16763c-.23707.17662-.47529.35923-.71551.54244a31.701,31.701,0,0,1-3.40731,1.31369c-.53418.05369-1.06879.08815-1.58821.12972q-5.228.41815-10.47193.59388-10.48366.35835-20.971-.22627-5.44615-.30391-10.874-.86247c-3.63668-.37442-6.72076-.71488-8.57174-4.24081C6.78188,86.52557,6.20937,78.25115,5.99731,71.17955c-.113-3.77058-.07046-7.56244.12322-11.33a19.64473,19.64473,0,0,1,.37241-2.9526,7.79271,7.79271,0,0,1,6.35647-4.82912.86117.86117,0,0,0,.557-.27353c2.35984-.49529,4.8035-.72126,7.11241-.98416a145.67072,145.67072,0,0,1,31.6691-.13373q4.19.44057,8.34845,1.13048c2.27266.37893,4.51371.7616,6.39978,2.15991-.01191.02549-.02135.05187-.03429.07689,4.94348,4.0256,3.62251,11.75971,3.4405,17.39662C70.12548,78.15759,70.49054,85.288,68.81333,91.843ZM90.55347,65.80617c-.03344,2.3167.18709,4.877-1.1743,6.87989a49.11983,49.11983,0,0,1-5.27484,5.81123q-1.35287,1.41994-2.73089,2.815c.00162-.05047.00421-.10088.00579-.15135-.03506.05523-.06706.11173-.10412.16607-.07168.10517-.15159.20631-.2269.30974q-1.21462,1.22607-2.4437,2.438a.77992.77992,0,0,0-.2498.55937c-.61025.60209-1.22331,1.19477-1.79485,1.79426q-3.16328,3.31811-6.32652,6.63614c.15445-.50687.2866-1.02224.40245-1.53668a60.20774,60.20774,0,0,0,1.12142-11.2055q.21291-6.26153.40463-12.52382c.10347-3.20547.29906-6.53262-.62349-9.64784a10.47642,10.47642,0,0,0-3.32792-5.12792.88606.88606,0,0,0-.31855-.45573c-.21784-.16657-.44377-.32221-.67539-.47l-.07395-.04612c-3.62873-2.27152-8.824-2.36-12.90692-2.84705a145.85111,145.85111,0,0,0-17.67986-1.02645q-2.91732.00816-5.83242.13649c-.45045.03952-.8952.06173-1.33118.06322q-5.06367.26358-10.10105.87673a66.08559,66.08559,0,0,0-7.27992,1.129c-.04914.04667-.09781.09386-.14649.141a9.7721,9.7721,0,0,0-2.59333.9391,42.45763,42.45763,0,0,1,4.57731-5.32436c1.47379-1.47622,3.01656-2.881,4.57059-4.27174l.01311-.01175c-.041-.02582-.08331-.04965-.12441-.07535a55.83452,55.83452,0,0,1,6.26363-4.63807,4.7166,4.7166,0,0,0,2.105,1.91471,6.79728,6.79728,0,0,0-3.67276.86332c-1.64973,1.169-.3431,3.86683.01361,5.38257a.85551.85551,0,0,0,.82057.62472c11.86242-1.05389,23.942-2.1411,35.785-.31459a14.84093,14.84093,0,0,1,3.54108.76389,25.25886,25.25886,0,0,0,4.99739.98514A2.79914,2.79914,0,0,0,71.316,45.18331c.54243-2.3606-.74152-3.662-2.50646-4.27663.03293-.03685.06944-.07072.10458-.10569a.67973.67973,0,0,0,.19058.04038c1.85739.1059,3.71977.25945,5.57917.318a7.20325,7.20325,0,0,0,1.79724-.11143.72.72,0,0,0,.41266-.12288,2.33411,2.33411,0,0,0,.76742-.45534c.95864-.87592.86018-1.63713.30783-2.21139a4.76512,4.76512,0,0,1,1.1241-1.07334,11.22961,11.22961,0,0,0,2.12613-1.425,4.73607,4.73607,0,0,0,1.13069-2.35643c.0112-.02447.019-.04987.02953-.0745,4.654,1.32373,6.57542,5.35627,7.11837,10.03923.57949,4.99862.88264,10.04115,1.01283,15.07032Q90.606,62.12136,90.55347,65.80617Z"/><path d="M65.0633,6.87854c-1.343-.23256-2.67333-.4998-3.9994-.77946a35.57028,35.57028,0,0,0,.3839-3.72688c.05332-1.01714-1.57658-.86869-1.9273-.20083a30.45534,30.45534,0,0,0-1.47728,3.27618c-1.00688-.21967-2.0144-.43794-3.02571-.64676a.03718.03718,0,0,0-.03935-.02872l-.86771-.15364c-.21236-.04237-.42411-.0862-.637-.12738l.00226.01332c-.37416-.05442-.77317.32842-.32119.56915a26.75371,26.75371,0,0,0,4.3893,1.80953,14.55211,14.55211,0,0,0-.77538,5.66436,3.5806,3.5806,0,0,1-.89783.8478,4.76316,4.76316,0,0,1-2.67635.59685c.8392-1.80251.53388-4.222.06288-6.22547-.20056-.85307-1.68312-.68416-1.96776,0-.63579,1.52834-1.22715,3.08033-1.89348,4.59536a9.69647,9.69647,0,0,1-.63779,1.33143q-2.09842.43461-2.22309-1.22026a3.61983,3.61983,0,0,1-.20393-1.80017c.14041-.72075.236-1.332.30532-1.68155.18946-.95481-1.52779-1.22677-1.73082-.3674-.10441.48921-1.55727,5.917-1.69708,5.84957-.581-.28013.12275-3.201.23971-3.57682a7.39737,7.39737,0,0,1,1.64062-2.8262c.51342-.5672-.47164-.98514-.90961-.91107a33.11332,33.11332,0,0,1-6.40413.42735c-.43122-.01145-1.1926.38794-.93515.94527.73756,1.59684,1.56089,5.723-.98692,5.9q-1.2509.51751-.968-.82614a6.36107,6.36107,0,0,1,.29149-1.697,9.12793,9.12793,0,0,1,1.46882-2.85377c.51354-.70279-.6937-.93872-1.13436-.6739a14.48358,14.48358,0,0,0-4.04824,3.24124,21.44379,21.44379,0,0,0-1.45775,2.405,8.32413,8.32413,0,0,1-.63851,1.01892c-.44032.54741-.98276,1.38534-1.43907.70364-.40982-.61221-.08821-2.544-.10084-3.28443q-.03218-1.88539-.06433-3.77079c-.00949-.55239-.02123-1.1047-.03119-1.657.437.01047.87422.02038,1.30973.03468a44.11785,44.11785,0,0,0,6.58342.05123.60843.60843,0,0,0,0-1.2143,44.09737,44.09737,0,0,0-6.58342.0277c-.44228.01289-.88613.02136-1.32986.03033q-.04448-2.40719-.09066-4.81422c-.0177-.87621-1.60191-.8503-1.69032,0-.16913,1.6268-.34672,3.24908-.54367,4.86673-.61153.01723-1.22264.0408-1.83238.07458-.00128-.02034-.01294-.04-.04791-.04816a2.47074,2.47074,0,0,0-1.85553.21393c-.35062.1544-.09173.47159.17551.499,1.13959.11666,2.28837.17363,3.43854.21171a102.939,102.939,0,0,1-2.41775,13.1377c-.16121.61633.94451.7824,1.125.23881a60.67009,60.67009,0,0,0,1.9296-7.53141c-.12756,1.75154-.20648,3.96842,1.1135,4.67483,1.38411.74071,3.01537-.43432,3.86512-1.45354,1.13163-1.35725,1.82907-2.87581,2.76557-4.22111-.77117,2.21714-.82639,4.60289,1.88434,4.71049,3.77266.14985,4.31841-4.53958,3.51742-7.44419a25.14059,25.14059,0,0,0,3.77734-.36033,9.10728,9.10728,0,0,0-1.3022,3.35391c-.19019,1.18286-.42377,3.18313.92608,3.80776,1.31246.60732,2.2122-.29285,2.83714-1.63947a3.23225,3.23225,0,0,0,2.40877,1.35909,2.91662,2.91662,0,0,0,1.34245-.135c-.15483.62043,1.12159.91685,1.59327.75692a4.58807,4.58807,0,0,0,1.46792-.80916c1.17719-.21193,2.75072.13189,3.72471-.10863a4.21735,4.21735,0,0,0,1.48128-.69084,5.379,5.379,0,0,0,.30562.58881,4.14507,4.14507,0,0,0,6.91686-.134c.63264-1.046-1.25348-1.66436-1.79958-.81a1.91342,1.91342,0,0,1-3.47645-.09965,3.40465,3.40465,0,0,1-.40236-1.34347,17.55124,17.55124,0,0,0,1.90249-5.06691c1.27046.28775,2.53714.51963,3.75318.68923C65.67479,8.60413,66.43936,7.11685,65.0633,6.87854ZM50.73058,14.203c-.0271.00821-.05365.01948-.08063.02833a8.44454,8.44454,0,0,0,.97612-1.64649A3.06513,3.06513,0,0,1,50.73058,14.203Z"/><path d="M111.19212,22.57537q-1.91863,3.82925-3.83725,7.65846a7.1005,7.1005,0,0,0-3.61916,2.16246,5.76165,5.76165,0,0,0-.52873.69174,2.81174,2.81174,0,0,1-1.2794.26647c.27614-1.62654.51381-3.28469.92724-4.87421.17755-.6828-.65-.92681-1.19456-.68616a1.97783,1.97783,0,0,0,.35089-1.18.586.586,0,0,0-.50678-.51248c-1.81383-.25669-4.92519.97254-5.97219,2.85092a2.8884,2.8884,0,0,1-1.112.24426c-.75394-.0702-1.0499-.62166-1.32233-1.397a6.038,6.038,0,0,1-.27779-2.64848,5.05394,5.05394,0,0,0,2.0735-5.08155c-.13517-.6959-1.29548-.58391-1.63969-.165a9.49558,9.49558,0,0,0-2.06869,4.50643c-.97041.57486-2.20058.89315-2.55772-.52-.24993-.98914,1.0427-2.40758,1.05074-3.49709.00975-1.31075-.93106-2.13332-1.31717-3.30771-.01515-.04607-.02545-.089-.03651-.13249a1.96017,1.96017,0,0,0,1.50511-1.28463c.473-1.6761-1.624-2.17178-2.61751-1.15834a2.2319,2.2319,0,0,0-.57251,1.21c-.63.00791-1.2594.0034-1.88948-.03536-.32668-.02008-.87112-.16036-1.41257-.23026-.14815-1.24077-.864-2.28909-2.47374-1.66964a1.23521,1.23521,0,0,0-.8717,1.47873,1.94745,1.94745,0,0,0,1.57858,1.301,10.90344,10.90344,0,0,1-.32668,1.27685,4.45175,4.45175,0,0,1-1.18009,1.71576q-2.8762.84837-2.81573-1.283a5.41748,5.41748,0,0,1,.45934-2.04882,25.26184,25.26184,0,0,1,2.42221-4.63918,18.96323,18.96323,0,0,0,3.49019-4.62974l.00439-.00532-.00123-.00038c.02531-.04787.05369-.09263.07862-.14083.37654-.72773-1.03517-.89188-1.40342-.4556a50.75357,50.75357,0,0,0-3.89673,5.38044,42.0325,42.0325,0,0,1-6.78488,5.163l.0805-.15232c.05773-.10951-.1547-.15466-.2167-.09709-.46312.42977-.63893.601-1.08737,1.05041-.25571.2563.28225.49844.49091.378a67.605,67.605,0,0,0,6.11671-3.85351c-1.64006,3.30422-2.20641,6.47276,1.19031,7.00626,2.5547.40117,4.24774-1.74006,4.974-3.92431a3.8065,3.8065,0,0,0,.11177-.4344,20.19267,20.19267,0,0,0,3.45663.29553,17.02146,17.02146,0,0,0,.89536,1.78635,3.43463,3.43463,0,0,1-.1279,3.0705c-.39207,1.05709-.91353,2.11983-.08467,3.12a3.68239,3.68239,0,0,0,3.40638.85673c.081-.01531.15832-.03854.23767-.05748.00749,1.493.33638,4.04995,1.88505,4.68994a3.70811,3.70811,0,0,0,2.26071-.01025,3.052,3.052,0,0,0,.52146,1.25642,3.42792,3.42792,0,0,0,3.75633,1.02181,3.7595,3.7595,0,0,0,.95833-.45159c-.09408.42066-.18725.84047-.27346,1.2588a.6766.6766,0,0,0,.59354.80495,5.4315,5.4315,0,0,0,1.84344.08769c-.05893.666.2578,1.2274,1.30314,1.38542a2.511,2.511,0,0,0,.71727.00447,5.52755,5.52755,0,0,0-.15994,1.89646c.31114,3.03515,4.58272,4.71542,6.032,1.53787.41917-.919-1.42559-1.3293-1.85-.60056q-2.068.68448-2.16651-.76142a2.26033,2.26033,0,0,1-.09794-1.04037,6.52206,6.52206,0,0,1,.63174-2.09451c.13663-.3174.28017-.632.42747-.94523a11.9578,11.9578,0,0,0,.88533-1.36164c.35378-.63136.691-1.27484,1.02036-1.92373.0286-.00021.06068-.002.088-.00166.46743.00557.53835-.46066.22933-.62842,1.15533-2.33934,2.18574-4.75985,3.22172-7.13245C113.27319,22.05251,111.56713,21.82688,111.19212,22.57537Zm-10.66693,4.62178c-.36225.673-1.53622,1.02522-2.60279,1.23931A4.79649,4.79649,0,0,1,100.52519,27.19715Zm-.22921,3.01472c-.77852,1.17588-2.90823,2.24922-3.10224.1159a2.30081,2.30081,0,0,1-.00341-.37177c.38723-.14888.74913-.28937,1.063-.39242a9.13046,9.13046,0,0,0,2.97078-1.29445A13.78566,13.78566,0,0,1,100.296,30.21187Zm4.75164,4.29664a2.42517,2.42517,0,0,1-.62328-.51521c.15309-.085.30575-.17678.45815-.27851.55277-.36893.20491-.79968-.2957-.96182a3.93245,3.93245,0,0,1,2.30355-1.60931c-.5378,1.01-1.19311,2.10136-1.69181,3.22908C105.14654,34.41652,105.102,34.46677,105.04762,34.50851Z"/></svg>