<svg xmlns="http://www.w3.org/2000/svg" viewBox="0 0 94 94"><defs><style>.a{fill:#f7857b;}</style></defs><title>index_num3</title><path class="a" d="M31.6748,81.13379c0,1.3335,4.168,5.167,6.335,5.66748,2.167.5,13.835-.50049,17.335-2.667,1.834-1.167,3-3.66748,3.5-7.668,1.001-8.001,0-23.16943-2.166-27.83643-2.167-4.66748-3.001-4.834-7.168-4.834s-11.168-2.167-11.001-4.00049c-.167-.8335,1-2.3335,3.5-4.334,4.834-4.00049,8.168-16.16846,8.668-18.33545,0-2.167-2-6.16748-4.667-7.001a5.6407,5.6407,0,0,1-2.667-1.667,3.2534,3.2534,0,0,0-3.001-1.3335c-3.167,0-11.168,8.168-12.001,12.66846a16.08271,16.08271,0,0,1-1,3.50049c-1.834-.167-7.335-3.834-7.335-5.334,0-5.16748,7.168-14.66845,11.835-16.00195q14.25146-4.00048,23.50293,1.5c6.668,3.50049,8.834,7.33447,9.335,15.33545.833,8.001.666,8.001-4.501,13.335l-5.167,5.50049,7.167,4.334c6.168,3.667,7.668,5.00049,11.168,12.50147,3.501,7.501,4.668,20.33593,1.334,25.66992s-13.835,13.835-15.66894,13.00146c-.833-.5-3.5-.667-7.667-.667-8.502.50049-9.668,0-17.50293-4.00049-7.834-4.00048-9.001-4.50048-12.501-11.668-3.501-7.16748-2.667-13.66845,0-15.002,2.667-.833,10.834,1.834,14.335,6.66748,1.833,2.50049,2.667,4.66748,2.667,6.66748,0,4.00049-2.834,6.501-5.001,5.66748C32.1748,80.30029,31.6748,80.4668,31.6748,81.13379Z"/></svg>