<svg xmlns="http://www.w3.org/2000/svg" viewBox="0 0 94 94"><defs><style>.a{fill:#f7857b;}</style></defs><title>index_num2</title><path class="a" d="M59.5127,6.2915c7.501,4.00049,11.501,9.83448,12.334,19.669.834,9.83447-1.166,13.50146-9.834,23.33594-13.835,14.33545-21.669,23.66992-23.83594,27.83691a27.0951,27.0951,0,0,0-1.334,3.167c0,.16651.834.3335,2.667.5a54.35714,54.35714,0,0,1,7.668,1.50049c6.667,1.66651,15.168,2.667,17.502,2.5a5.16706,5.16706,0,0,0,3-1.5c4.167-5.16748,9.501-6.16748,15.502-2.50049,5.501,3.334,6.168,5.501,2.167,9.168-2,1.8335-4.834,2.50049-8.334,2-15.169-2.1665-24.16992-3.33349-27.16992-4.167-1.834-.8335-5.168-1-10.335-.5s-10.168.6665-15.335.6665-9.335-.833-12.835-2.667c-3.501-1.83349-5.001-2.83349-4.834-3.33349,1.167-2.167,18.66894-17.33545,26.00293-21.33594,7.334-4.50049,17.83594-14.335,20.66992-19.83594,3.167-5.50049,3.167-20.33545,2.666-22.50244-.5-2.167-5.5-7.83447-7.334-8.668-.833-.5-2.833-.5-5.667,0-2.834.167-7.834,2.50049-14.835,6.66748l3,3.167c3.667,4.00049,4.001,8.501.5,12.50147-5.167,5.834-15.835-.16651-16.50195-5.00049C13.17285,13.62549,24.3418,2.291,42.34375,2.291,50.51074,2.291,52.01172,2.791,59.5127,6.2915Z"/></svg>