<svg xmlns="http://www.w3.org/2000/svg" viewBox="0 0 94 94"><defs><style>.a{fill:#f7857b;}</style></defs><title>index_num1</title><path class="a" d="M27.34082,16.126c1.667-1.16651,4-3,6.834-5.334,5.834-4.834,9.835-8.334,13.002-9.16748,3.167-.667,7.501,1.3335,8.001,4.50049.166,1.5.5,6.334.833,14.502.333,8.16748,1.334,27.83643,3.167,59.00684.167,1,1.5,1.8335,3.834,2.50049q3.501.99975,4.501,2c.666.667.833,1.167.333,1.667s-1.667.8335-3.5,1c-1.834.167-3.001.8335-3.501,1.8335-.833,2.00048-23.50293,2.50048-29.50391.667-4.834-1.5-5.667-2.667-2.5-3.167h4.167c8.168,0,9.335.5,8.668-15.002-.167-.5-.333-4.834-.5-13.335s-.834-18.33545-2-29.83691c-6.168,1.167-14.502-.3335-15.16894-3.50049-.667-1.5-1.333-2.167-2-2.167C17.83984,22.29346,24.00684,18.46,27.34082,16.126Z"/></svg>