<svg xmlns="http://www.w3.org/2000/svg" viewBox="0 0 176 200"><defs><style>.a{fill:#fff;}.b{fill:#c90;}</style></defs><title>iz_logo</title><path d="M146.16579-.02515H30.18431A30.06794,30.06794,0,0,0,.17505,30.03327V169.91693a30.06751,30.06751,0,0,0,30.00926,30.05792H146.16579a30.06751,30.06751,0,0,0,30.00926-30.05792V30.03327A30.06794,30.06794,0,0,0,146.16579-.02515Z"/><path class="a" d="M82.26909,174.63125,54.25278,64.05632a3.034,3.034,0,0,0-5.884,0L20.352,174.63125a3.0395,3.0395,0,0,0,2.942,3.788H79.3271a3.03948,3.03948,0,0,0,2.942-3.788Zm-10.62524-4.55152a3.03439,3.03439,0,0,1-2.40448,1.18465H32.87582a3.03925,3.03925,0,0,1-2.93507-3.8157l18.182-69.0244a3.03423,3.03423,0,0,1,5.87014,0l18.18153,69.0244A3.045,3.045,0,0,1,71.64385,170.07973Z"/><polygon class="b" points="36.816 165.184 65.299 165.184 51.058 111.117 36.816 165.184"/><polygon class="a" points="45.25 27.864 50.805 31.57 56.366 27.864 50.805 24.159 45.25 27.864"/><path class="a" d="M72.35328,25.3912,52.89615,12.13549a3.03044,3.03044,0,0,0-3.4133-.0005L30.01584,25.3907a3.04286,3.04286,0,0,0,0,5.02854L49.48285,43.675a3.03047,3.03047,0,0,0,3.4133-.00049L72.35328,30.41875a3.0432,3.0432,0,0,0,0-5.02755ZM62.33373,29.97389,52.206,36.72347a2.52569,2.52569,0,0,1-2.80316-.001L39.285,29.9729a2.53541,2.53541,0,0,1,0-4.217L49.40282,19.0068a2.52573,2.52573,0,0,1,2.80316-.001L62.33373,25.7549a2.536,2.536,0,0,1,0,4.219Z"/><polygon class="a" points="139.424 47.971 112.223 47.971 125.819 77.425 139.424 47.971"/><path class="a" d="M158.02118,174.11959l-28.833-67.34,28.833-67.35977a3.0396,3.0396,0,0,0-2.78982-4.23828h-59.23a3.03961,3.03961,0,0,0-2.78983,4.23828l28.833,67.35977-28.833,67.34a3.03983,3.03983,0,0,0,2.78983,4.23878h59.23a3.03982,3.03982,0,0,0,2.78982-4.23878ZM104.71959,46.207a3.04029,3.04029,0,0,1,2.75524-4.31647h36.69752a3.03984,3.03984,0,0,1,2.75475,4.317L128.57315,85.944a3.035,3.035,0,0,1-2.75474,1.7636h-.0005a3.03545,3.03545,0,0,1-2.75475-1.76409ZM146.73,171.392a3.03479,3.03479,0,0,1-2.55763,1.40287H107.47483a3.04006,3.04006,0,0,1-2.75524-4.316l18.34357-39.74684a3.03311,3.03311,0,0,1,5.51-.00049l18.35395,39.74684A3.044,3.044,0,0,1,146.73,171.392Z"/><polygon class="a" points="112.222 166.714 139.424 166.714 125.819 137.252 112.222 166.714"/></svg>