<svg xmlns="http://www.w3.org/2000/svg" viewBox="0 0 178 66"><title>logo</title><path d="M32.42806,5.17373S29.66071,8.04751,28.02869,8.562a2.6319,2.6319,0,0,1-3.05117-.90471c-.35478-.53218-.56766-2.62542-2.30611-2.48351s-2.8383,4.25745-2.30612,5.49921a21.83956,21.83956,0,0,0,4.967,5.854,7.84721,7.84721,0,0,0,3.76075,1.01115,2.38759,2.38759,0,0,0,1.38367-.30157,8.68712,8.68712,0,0,1,1.06436-4.967c1.41915-2.66091,1.91585-4.967,4.43484-6.93609s5.14441-1.93359,5.14441-1.04662S38.79649,8.06525,37.129,10.61972c-1.64976,2.55446-8.781,11.5838-9.84535,11.93859a18.925,18.925,0,0,1-6.33295,1.15306c-2.448-.12418-2.00455,1.20627-1.38367,1.89811.62088.67409,3.44143,2.82055,4.4171,2.83829a5.85769,5.85769,0,0,0,1.703-.21287s.86923,1.54333.0887,2.53673C24.97752,31.78278,14.86609,45.44208,12.20518,48.103s-6.0846,6.40391-7.29087,7.09574a3.84131,3.84131,0,0,0-1.7562,3.56561c0,1.57881-.071,3.77849.85149,4.36389A2.20542,2.20542,0,0,0,7.06077,62.188c.37253-1.13531,4.52354-8.781,8.53263-10.71457,0,0-.26609,2.87378-.65635,4.89607s-.408,2.02228.30157,4.50579,1.04662,3.58336,2.519,3.90266,2.09325-1.77393,2.448-3.54787,4.20422-10.18239,5.83625-12.09824c1.61428-1.91585,10.5017-7.3441,15.73481-8.08915,5.21537-.74506,9.31316-.92245,10.28883-2.4303a2.24327,2.24327,0,0,0-1.1708-3.63656c-1.77394-.70958-4.34615-1.86264-5.49921-3.72527a16.64356,16.64356,0,0,1-.37252,2.998c-.33705,1.43689-.51444,2.67865-3.17535,3.21083s-9.8276,4.27518-12.15146,5.48146c-4.78963,2.46577-6.27973,6.5813-7.34409,6.36843-1.06437-.23061-2.48352-.97567-2.50126-3.672,0,0,9.36639-11.8499,11.3532-14.36889s9.57925-7.62792,10.9984-8.51489a2.00733,2.00733,0,0,0,.21287-3.38822c-1.09984-.69183-3.49465-.83375-3.406-1.75619s4.61224-4.61224,6.91836-6.38617,5.64111-3.45918,3.19308-5.854S42.37983-.13033,39.89632.934,33.66981,3.75458,32.42806,5.17373Z"/><path d="M35.97593,31.78278s-.1774-1.56107.887-1.40141a2.41692,2.41692,0,0,1,2.23516,2.856c-.35479,1.86264-.65636,16.12508-.56767,18.0232s.54993,4.25744,3.47692,5.12667c2.927.85149,9.189.23061,11.51285-.39027s5.53468-1.93359,5.97816-5.62338a41.98152,41.98152,0,0,0,.26609-6.70547s.1774-2.66091,1.06436-1.77394,1.45463,4.75415,2.76735,5.74755,2.76734,2.30612,5.09119,4.08006,3.03344,4.87832-.78053,8.26654-10.64361,3.72527-16.85239,3.72527a29.17647,29.17647,0,0,1-14.0141-3.19309c-3.99135-1.93359-3.72526-7.80532-3.37047-11.708S35.97593,31.78278,35.97593,31.78278Z"/><path d="M129.44462,7.08958s3.743,1.632,5.69433,1.632,4.61224-3.19309,5.4992-5.6766,4.41711-.10644,4.41711-.10644,4.09779,2.23516,5.42824,3.86718S148.21286,9.715,148.21286,9.715s-5.64111,4.84284-8.12462,6.97157.35479,2.39481.35479,2.39481a40.81146,40.81146,0,0,1,6.20877-1.86263,16.14032,16.14032,0,0,1,9.04708,1.24175c2.83829,1.24176,1.41914,3.19309.53218,3.90266s-4.25745,2.66091-6.56357,5.49921a5.612,5.612,0,0,0-.35478,7.09574,5.05741,5.05741,0,0,1,1.06436,4.25745c-.1774,1.95133-6.56357,8.3375-9.31317,11.17579s2.04,2.48351,3.10439,2.35934,5.32181.83375,7.64566.44348,3.17535-5.64111,2.998-7.98271.53218-8.8342.67409-11.31771c.14191-2.46577,1.27724.42574,1.27724.42574s.70957,4.00909.887,5.60564,3.90265,11.17579,4.61223,13.60609,4.08005,5.9959.53218,7.149-5.32181,0-14.79463-.70958-12.87877,1.95133-14.65271,2.66091-3.37048-.887-3.814-2.69639-2.21742-2.98021-2.7496-4.57675,4.61223-3.01569,6.56356-3.37048.35479-2.12872.35479-2.12872a9.97425,9.97425,0,0,1-4.43484,0c-2.66091-.53218-1.24176-5.4992-.887-8.86968s1.24175-4.43484,4.08005-7.62793,9.57926-2.48351,11.35319-2.6609,2.66091-5.32181,3.54788-7.98272-3.54788-.887-7.45054.53219-9.04707,6.56356-12.41755,9.22446-5.4992,8.69229-6.741,11.53059S111.17308,62.09934,108.867,62.9863s-3.01569-4.25744-3.44144-6.56356,1.8449-4.43484,5.74756-8.3375,19.5133-28.383,21.28723-32.10824-.70957-3.19309-2.48351-4.25745-4.25744-5.32181-4.25744-5.32181C126.58859,4.41094,129.44462,7.08958,129.44462,7.08958Zm10.43074,29.05708c-.60314.63862-4.89606,5.038-4.89606,6.7587s3.0157-1.18854,6.22652-3.21083,2.28838-3.10439,2.28838-3.10439C144.186,35.36613,140.46076,35.508,139.87536,36.14666Z"/><path d="M161.748,30.71841s5.854,1.95133,4.43484,3.90266-4.967,4.43484-4.78962,5.32181,1.41915.53218,3.37047.17739,5.65887.479,7.45054,1.24176,5.32181-1.06436,2.83829-4.61223a27.38307,27.38307,0,0,0-10.9984-9.04708C159.26448,25.503,158.37751,28.2349,161.748,30.71841Z"/></svg>