<svg xmlns="http://www.w3.org/2000/svg" viewBox="0 0 316 66"><defs><style>.a{isolation:isolate;}</style></defs><title>アートボード 1</title><g class="a"><path d="M7.95508,37.63281c-.36035,3.60254-4.04248,7.04492-6.76416,7.04492A1.45446,1.45446,0,0,1-.25,43.15625c0-1.40039,1.80127-1.60059,3.52246-2.6416a10.454,10.454,0,0,0,3.40186-3.36133A.69422.69422,0,0,1,7.95508,37.63281Zm7.2041-6.16308c0,7.28418.16016,12.00683.16016,13.4082,0,1.96094-1.36084,3.32129-2.40137,3.32129-.84033,0-1.16065-.59961-1.68115-1.24024a16.94819,16.94819,0,0,0-1.9209-1.84082c-.60059-.48046-.32031-1.08105.32031-1.041.6001.04,1.60059.16015,2.041.16015a.74361.74361,0,0,0,.84033-.76074c.20019-1.48047.16015-8.04492.16015-11.60644-4.72265.83984-7.04394,1.64062-8.20459,1.64062-1.64111,0-3.3623-1.88086-3.60253-3.80176-.07959-.64062.5205-.92089,1.041-.56054a5.33956,5.33956,0,0,0,3.08154,1.36035,73.63546,73.63546,0,0,0,7.68457-.91992c0-1.60157.04-3.92285,0-4.6836-.04-1-.36035-1.32031-1.40087-1.7207-.84034-.32031-1.44092-.52051-1.44092-.96094,0-.63965,1.60107-1.20019,2.36181-1.20019,1.60059,0,3.92237.9209,3.92237,1.9209a19.098,19.098,0,0,1-.56055,2.52148,30.1869,30.1869,0,0,0-.36035,3.68262c3.40234-.64063,6.88428-1.60156,8.00488-1.60156,1.80127,0,3.16211.92089,3.16211,2.1621,0,.79981-.9209,1.08008-2.76172,1.08008A77.71642,77.71642,0,0,0,15.15918,31.46973Zm13.84814,11.166a1.505,1.505,0,0,1-1.56054,1.52149c-1.12061,0-1.80127-1.32129-3.64209-3.12207a48.90356,48.90356,0,0,0-4.1626-3.32227c-.64063-.47949-.36035-1.32031.52-1.20019C23.84473,36.95312,29.00732,39.55469,29.00732,42.63574Z"/><path d="M66.18652,31.30957c0,.68066-.56006,1.041-1.521,1.041-.88037,0-2.001-.04-3.28174-.04a78.11092,78.11092,0,0,0-9.20557.7998c1.28076.76074,1.80127,1.6416,1.80127,2.28125a6.82528,6.82528,0,0,1-.7207,2.16113A22.12287,22.12287,0,0,1,42.25244,49.32031c-1.3208.64063-2.24121-.64062-.96045-1.56152,4.72266-3.32129,8.7251-8.2041,9.085-12.00684a2.12914,2.12914,0,0,0-.92041-2.20117c-4.08252.7207-8.605,1.96094-10.24609,1.96094-1.40088,0-3.12158-1.96094-3.40186-3.72168-.08007-.60059.40039-1.001,1.04053-.68066,1.04053.5205,2.001,1.28027,3.32178,1.28027,2.28174,0,12.0874-1.60059,15.3291-2.16113,3.68262-.63965,5.88379-1.12012,6.88428-1.12012C64.10547,29.1084,66.18652,29.98828,66.18652,31.30957ZM42.37256,23.625c-.36035-.7207.04-1.24121.76025-.96094a8.536,8.536,0,0,0,3.522.9209c4.603,0,7.36474-1.96094,8.68554-1.96094,1.08057,0,2.80127.51953,2.80127,1.52051,0,.68067-.76025,1.28125-2.001,1.64063a41.486,41.486,0,0,1-9.32568,1.52148A5.08549,5.08549,0,0,1,42.37256,23.625Z"/><path d="M77.15039,29.30859c1.96094,0,4.5625,1.48047,4.5625,3.28125a13.57153,13.57153,0,0,1-2.60156,7.04493c-1.80078,2.76171-5.8833,5.68261-10.44629,6.84375-1.08057.28027-1.64063-.84082-.56006-1.4004,3.76221-1.96191,6.72412-3.96289,8.68506-7.085a7.90592,7.90592,0,0,0,1.481-4.5625c-.04-1.001-.44043-1.20019-1.521-1.88086-.80029-.48046-1.72119-.80078-1.72119-1.32128C75.02881,29.749,76.26953,29.30859,77.15039,29.30859Zm9.24561.04c-.16016-1.56152-.44043-2.16113-1.521-2.72168-1.40088-.7207-1.88135-1.001-1.88135-1.36133,0-.63964,1.28076-1.12011,2.00147-1.12011,2.4414,0,4.64258,1.56054,4.64258,2.6416,0,.7998-.24024,1.9209-.28028,2.96191-.04,1.40039-.72021,6.92383-1.00049,8.68457-.20019,1.24121.24024,1.56153,1.24073,1.20118a48.7521,48.7521,0,0,0,12.20752-6.96485c1.24072-1,2.32128.08008,1.16064,1.36133a41.90024,41.90024,0,0,1-12.2876,8.44531c-1.08056.47949-1.68066,1.52051-2.92138,1.52051-1.1211,0-2.48194-2.081-2.48194-3.24219a22.54973,22.54973,0,0,1,.68067-3.082A39.50776,39.50776,0,0,0,86.396,29.34863Z"/></g><path d="M168.67213,5.735s-2.76733,2.87377-4.39935,3.38821a2.6319,2.6319,0,0,1-3.05116-.9047c-.3548-.53219-.56766-2.62543-2.30612-2.48351s-2.83831,4.25744-2.30612,5.4992a21.83979,21.83979,0,0,0,4.967,5.854,7.84727,7.84727,0,0,0,3.76076,1.01114,2.38754,2.38754,0,0,0,1.38366-.30157,8.68712,8.68712,0,0,1,1.06437-4.967c1.41914-2.6609,1.91584-4.967,4.43484-6.93609s5.14443-1.93359,5.14443-1.04662-2.32386,3.77848-3.99137,6.333c-1.64976,2.55447-8.781,11.5838-9.84535,11.93859a18.92468,18.92468,0,0,1-6.333,1.15306c-2.448-.12418-2.00454,1.20627-1.38366,1.89811.62088.6741,3.44143,2.82056,4.4171,2.8383a5.85817,5.85817,0,0,0,1.703-.21288s.86923,1.54333.0887,2.53673c-.79827,1.01115-10.90972,14.67046-13.57062,17.33136s-6.08459,6.40391-7.29088,7.09574a3.84131,3.84131,0,0,0-1.75619,3.56562c0,1.5788-.071,3.77848.85148,4.36388a2.20543,2.20543,0,0,0,3.00179-.84682q.02579-.04608.04938-.09336c.37252-1.13532,4.52354-8.781,8.53263-10.71458,0,0-.26608,2.87378-.65635,4.89607s-.408,2.02228.30157,4.50579,1.04662,3.58336,2.519,3.90266,2.09325-1.77393,2.448-3.54787S160.654,51.609,162.286,49.69316c1.61427-1.91585,10.50169-7.34409,15.73481-8.08915,5.21537-.745,9.31316-.92245,10.28884-2.43029a2.24328,2.24328,0,0,0-1.17081-3.63657c-1.77394-.70958-4.34615-1.86264-5.49921-3.72527a16.64367,16.64367,0,0,1-.37252,2.99795c-.33706,1.43689-.51444,2.67865-3.17534,3.21083s-9.82761,4.27519-12.15148,5.48146c-4.78962,2.46578-6.27972,6.5813-7.34408,6.36844-1.06436-.23061-2.48351-.97567-2.50125-3.672,0,0,9.36637-11.84989,11.35319-14.36888s9.57925-7.62793,10.9984-8.5149a2.00734,2.00734,0,0,0,.21287-3.38822c-1.09983-.69183-3.49466-.83375-3.406-1.75619s4.61223-4.61224,6.91835-6.38617,5.64111-3.45917,3.19308-5.854S178.62392.431,176.14041,1.49531,169.91389,4.31587,168.67213,5.735Z"/><path d="M172.22,32.34406s-.17738-1.56107.887-1.40141a2.41689,2.41689,0,0,1,2.23516,2.856c-.3548,1.86263-.65636,16.12508-.56766,18.02319s.54993,4.25745,3.47691,5.12667c2.927.85149,9.189.23061,11.51285-.39026s5.53468-1.93359,5.97817-5.62338a41.98308,41.98308,0,0,0,.26608-6.70548s.17738-2.66091,1.06436-1.77394,1.45464,4.75415,2.76733,5.74755,2.76734,2.30612,5.09121,4.08006,3.03343,4.87832-.78054,8.26654-10.64361,3.72527-16.8524,3.72527a29.17628,29.17628,0,0,1-14.01408-3.19309c-3.99137-1.93359-3.72527-7.80532-3.37049-11.708S172.22,32.34406,172.22,32.34406Z"/><path d="M265.68869,7.65087s3.743,1.632,5.69434,1.632,4.61224-3.19309,5.4992-5.6766,4.41712-.10643,4.41712-.10643S285.39713,5.735,286.72757,7.367s-2.27063,2.90925-2.27063,2.90925-5.64111,4.84285-8.12463,6.97157.35479,2.39481.35479,2.39481A40.81219,40.81219,0,0,1,282.8959,17.78a16.14027,16.14027,0,0,1,9.04709,1.2418c2.83829,1.24175,1.41916,3.19308.53217,3.90266s-4.25745,2.6609-6.56357,5.4992a5.61207,5.61207,0,0,0-.3548,7.09574,5.05738,5.05738,0,0,1,1.06436,4.25745c-.17739,1.95133-6.56356,8.3375-9.31317,11.1758s2.04,2.48351,3.10437,2.35933,5.32181.83375,7.64566.44348,3.17536-5.64111,2.998-7.98271.53217-8.8342.6741-11.31771c.14191-2.46577,1.27722.42574,1.27722.42574s.7096,4.00909.887,5.60564,3.90265,11.17579,4.61224,13.60609,4.08005,5.9959.53217,7.149-5.32181,0-14.79462-.70957-12.87878,1.95132-14.65271,2.6609-3.37048-.887-3.814-2.69639-2.2174-2.98021-2.7496-4.57675,4.61225-3.01569,6.56357-3.37048.3548-2.12872.3548-2.12872a9.97421,9.97421,0,0,1-4.43485,0c-2.66089-.53218-1.24176-5.4992-.887-8.86968s1.24176-4.43484,4.08005-7.62793,9.57925-2.48351,11.35318-2.6609,2.66088-5.32181,3.54788-7.98271-3.54788-.887-7.45053.53218-9.04709,6.56356-12.41754,9.22447-5.49921,8.69228-6.741,11.53058S247.41711,62.66066,245.111,63.54763s-3.0157-4.25745-3.44143-6.56357,1.84489-4.43484,5.74754-8.3375,19.51329-28.383,21.28725-32.10824-.7096-3.19309-2.48352-4.25745S261.96344,6.959,261.96344,6.959C262.83267,4.97222,265.68869,7.65087,265.68869,7.65087Zm10.43076,29.05707c-.60315.63862-4.89606,5.038-4.89606,6.7587s3.01568-1.18854,6.2265-3.21083,2.28839-3.10438,2.28839-3.10438C280.43011,35.92741,276.70483,36.06932,276.11945,36.70794Z"/><path d="M297.99207,31.2797s5.854,1.95133,4.43484,3.90265-4.967,4.43485-4.78964,5.32181,1.41916.53218,3.37048.1774,5.65888.479,7.45053,1.24175,5.32181-1.06437,2.83829-4.61223A27.38324,27.38324,0,0,0,300.29819,28.264C295.50858,26.06432,294.62161,28.79618,297.99207,31.2797Z"/></svg>