<svg xmlns="http://www.w3.org/2000/svg" viewBox="0 0 120 34"><defs><style>.a{isolation:isolate;}.b{fill:#fff;}</style></defs><title>アートボード 1</title><g class="a"><path class="b" d="M10.07861,19.88184c-.36035,3.60254-4.04248,7.04492-6.76416,7.04492a1.45446,1.45446,0,0,1-1.44091-1.52149c0-1.40039,1.80126-1.60058,3.52246-2.6416a10.4538,10.4538,0,0,0,3.40185-3.36133A.69422.69422,0,0,1,10.07861,19.88184Zm7.2041-6.16309c0,7.28418.16016,12.00684.16016,13.4082,0,1.96094-1.36084,3.32129-2.40137,3.32129-.84033,0-1.16064-.59961-1.68115-1.24023a16.9456,16.9456,0,0,0-1.9209-1.84082c-.60058-.48047-.32031-1.08106.32032-1.041.60009.04,1.60058.16016,2.041.16016a.74361.74361,0,0,0,.84033-.76074c.2002-1.48047.16016-8.04493.16016-11.60645-4.72266.83984-7.04395,1.64063-8.20459,1.64063-1.64111,0-3.3623-1.88086-3.60254-3.80176-.07959-.64063.52051-.9209,1.041-.56055A5.33953,5.33953,0,0,0,7.1167,12.75781a73.63546,73.63546,0,0,0,7.68457-.91992c0-1.60156.04-3.92285,0-4.68359-.04-1-.36035-1.32032-1.40088-1.72071-.84033-.32031-1.44092-.5205-1.44092-.96093,0-.63965,1.60108-1.2002,2.36182-1.2002,1.60059,0,3.92236.9209,3.92236,1.9209a19.09756,19.09756,0,0,1-.56054,2.52148,30.18675,30.18675,0,0,0-.36036,3.68262C20.7251,10.75684,24.207,9.7959,25.32764,9.7959c1.80127,0,3.16211.9209,3.16211,2.16211,0,.7998-.9209,1.08008-2.76172,1.08008A77.71621,77.71621,0,0,0,17.28271,13.71875Zm13.84815,11.166a1.505,1.505,0,0,1-1.56055,1.52148c-1.1206,0-1.80127-1.32129-3.64209-3.12207a48.90554,48.90554,0,0,0-4.1626-3.32227c-.64062-.47949-.36035-1.32031.52-1.20019C25.96826,19.20215,31.13086,21.80371,31.13086,24.88477Z"/><path class="b" d="M68.30957,13.55859c0,.68067-.55957,1.041-1.52051,1.041-.88086,0-2.001-.04-3.28222-.04a78.10107,78.10107,0,0,0-9.20508.79981c1.28076.76074,1.80127,1.6416,1.80127,2.28124a6.8252,6.8252,0,0,1-.72071,2.16114A22.12288,22.12288,0,0,1,44.376,31.56934c-1.3208.64062-2.24121-.64063-.96045-1.56153,4.72265-3.32129,8.72509-8.2041,9.085-12.00683a2.12915,2.12915,0,0,0-.92041-2.20118c-4.08252.72071-8.605,1.96094-10.2461,1.96094-1.40087,0-3.12158-1.96094-3.40185-3.72168-.08008-.60058.40039-1.001,1.04053-.68066,1.04052.52051,2.001,1.28027,3.32177,1.28027,2.28174,0,12.08741-1.60058,15.32911-2.16113,3.68212-.63965,5.8833-1.12012,6.88427-1.12012C66.22852,11.35742,68.30957,12.2373,68.30957,13.55859ZM44.49609,5.874c-.36035-.7207.04-1.24121.76026-.96093a8.53613,8.53613,0,0,0,3.522.92089c4.603,0,7.36475-1.96093,8.68555-1.96093,1.08056,0,2.80127.51953,2.80127,1.5205,0,.68067-.76026,1.28125-2.001,1.64063a41.48619,41.48619,0,0,1-9.32568,1.52148A5.08549,5.08549,0,0,1,44.49609,5.874Z"/><path class="b" d="M79.27344,11.55762c1.96094,0,4.5625,1.48047,4.5625,3.28125a13.56724,13.56724,0,0,1-2.60156,7.04492c-1.80079,2.76172-5.88282,5.68262-10.44629,6.84375-1.08008.28027-1.64063-.84082-.55957-1.40039,3.76171-1.96192,6.72363-3.96289,8.68457-7.085a7.90332,7.90332,0,0,0,1.48144-4.5625c-.04-1.001-.44043-1.2002-1.52148-1.88086-.79981-.48047-1.72071-.80078-1.72071-1.32129C77.15234,11.998,78.39258,11.55762,79.27344,11.55762Zm9.24609.04c-.16015-1.56153-.44043-2.16114-1.52148-2.72168-1.40039-.72071-1.88086-1.001-1.88086-1.36133,0-.63965,1.28027-1.12012,2.001-1.12012,2.44141,0,4.64258,1.56055,4.64258,2.6416,0,.79981-.24023,1.9209-.28027,2.96192-.04,1.40039-.71973,6.92383-1,8.68457-.2002,1.24121.24023,1.56152,1.24023,1.20117a48.74693,48.74693,0,0,0,12.208-6.96484c1.24024-1,2.32129.08007,1.16016,1.36132a41.89751,41.89751,0,0,1-12.28711,8.44532c-1.08106.47949-1.68067,1.5205-2.92188,1.5205-1.12109,0-2.48144-2.081-2.48144-3.24218a22.55028,22.55028,0,0,1,.68066-3.082A39.54,39.54,0,0,0,88.51953,11.59766Z"/></g></svg>